<svg width="112" height="120" viewBox="0 0 112 120" fill="none" xmlns="http://www.w3.org/2000/svg">
<path d="M15.3226 120C11.5395 119.775 7.79938 119.078 4.18923 117.923L1.35134 117.029C1.10374 116.95 0.874902 116.821 0.678718 116.65C0.482535 116.479 0.323091 116.27 0.210197 116.035C0.0913257 115.806 0.0211745 115.554 0.00409917 115.296C-0.0129762 115.037 0.0234169 114.779 0.110994 114.535L20.8098 54.2817C18.5089 49.5165 17.3116 44.2927 17.3071 38.9998C17.3071 28.1593 22.4471 17.7163 31.3975 10.3436C39.4977 3.79507 49.5556 0.153328 59.9651 0H61.5726C89.4257 0.39745 112 21.2934 112 46.7997C112 72.6339 89.009 93.6093 60.7589 93.6093C60.0742 93.6093 59.3895 93.6093 58.7049 93.6093C58.0202 93.6093 57.3951 93.6093 56.7203 93.5299C56.1455 93.5033 55.5818 93.3622 55.0621 93.1148C54.5425 92.8674 54.0773 92.5187 53.6939 92.0891C53.3629 91.7195 53.109 91.2874 52.9471 90.8181C52.7852 90.3489 52.7186 89.852 52.7512 89.3566C52.8655 88.3214 53.3649 87.3672 54.1501 86.6841C54.9353 86.001 55.9486 85.639 56.9882 85.6703H57.5042L60.1238 85.8094H60.7489C84.4842 85.8094 103.794 68.3117 103.794 46.8196C103.794 25.3275 84.5437 7.81983 60.8779 7.76021C52.151 7.72445 43.663 10.6136 36.7657 15.9675C29.3236 21.9293 25.0568 30.2956 25.0568 39.0296C25.056 39.8857 25.099 40.7414 25.1858 41.5931L25.3247 41.1957C26.7975 36.4358 29.4016 32.1048 32.9135 28.5743C36.4254 25.0438 40.7402 22.4192 45.4877 20.9257C48.6253 19.7169 51.9594 19.1004 55.3212 19.1074C69.5902 19.1074 81.1998 29.9578 81.1998 43.3021C81.192 48.3742 79.5066 53.3007 76.4071 57.3123C75.671 58.2685 74.8686 59.1716 74.0058 60.0149C73.46 60.5515 72.9143 61.0085 72.3685 61.4755L72.2693 61.565C71.9518 61.8233 71.6343 62.0717 71.277 62.3102L71.0786 62.4592C70.5427 62.8368 69.987 63.2144 69.4214 63.5621L69.0642 63.7708C68.8161 63.9199 68.578 64.059 68.32 64.1881L67.8636 64.4465L67.3972 64.675L66.6233 65.0526L66.2263 65.2314L65.6012 65.4898L65.244 65.6388L64.3509 65.9667L63.9937 66.086C63.6762 66.1953 63.3686 66.2946 63.0014 66.384L62.7434 66.4635L61.8802 66.6921L61.6222 66.7517C61.2749 66.8411 60.9276 66.9107 60.5803 66.9802L60.3024 67.0299L59.2109 67.2187H59.0819L58.0301 67.3478H57.8118C57.4348 67.3478 57.0577 67.4075 56.6707 67.4273H56.4425C56.0456 67.4273 55.6487 67.4273 55.2518 67.4273H54.3984H54.0313L53.5549 68.9277C51.9772 74.0151 51.1636 76.6184 51.0743 76.8767C51.015 77.0432 50.9455 77.2058 50.8659 77.3636C47.1548 89.0287 44.0688 98.7563 44.0688 98.7563C42.1345 104.888 38.3052 110.245 33.1332 114.056C27.9613 117.867 21.7141 119.935 15.2928 119.96L15.3226 120ZM9.07127 110.809C11.535 111.64 14.1223 112.043 16.7217 112.001C19.8884 112.096 23.0337 111.453 25.9102 110.123C28.5954 108.733 30.9782 106.823 32.92 104.503C34.8619 102.183 36.3243 99.5004 37.2221 96.6101L43.9497 75.1776C43.9782 74.9677 44.0281 74.7613 44.0986 74.5616C44.3864 73.6673 52.1658 48.5982 55.1426 39.0196C55.3748 38.261 55.8445 37.5973 56.4825 37.1267C57.1204 36.6561 57.8927 36.4036 58.6851 36.4064C59.0585 36.4082 59.4296 36.4651 59.7865 36.5753C60.7258 36.8681 61.5105 37.5225 61.9682 38.3944C62.4259 39.2664 62.5192 40.2847 62.2274 41.2255L56.6112 59.4883C60.1473 59.2868 63.5553 58.0918 66.4446 56.0404C67.7682 55.1045 68.9511 53.9836 69.9573 52.7118C72.1089 50.0439 73.2883 46.7214 73.3013 43.2922C73.3013 35.6214 67.2781 28.9244 58.9728 27.3942C58.1961 27.2957 57.414 27.246 56.631 27.2452C56.2242 27.2452 55.8173 27.2452 55.4204 27.2452H54.19C53.3415 27.2409 52.4935 27.284 51.6498 27.3744C50.2443 27.5282 48.8559 27.8109 47.5021 28.2189H47.4227L46.4899 28.527L45.4977 28.9145H45.4183C45.1007 29.0436 44.8527 29.1529 44.6047 29.2722L44.3764 29.3715L43.5727 29.769L43.3742 29.8683C41.4071 30.9097 39.5994 32.2281 38.006 33.7832C37.7414 34.0416 37.4834 34.3098 37.232 34.5881C36.723 35.1357 36.2428 35.7095 35.7932 36.307C34.8869 37.5006 34.1023 38.7821 33.4514 40.1325C32.9542 41.1612 32.5298 42.2237 32.1814 43.3121L9.07127 110.809Z" fill="url(#paint0_linear_738_14681)"/>
<defs>
<linearGradient id="paint0_linear_738_14681" x1="-4.62216" y1="-3.06036" x2="76.6918" y2="99.8015" gradientUnits="userSpaceOnUse">
<stop stop-color="#2DAAE0"/>
<stop offset="0.515625" stop-color="#0085FF"/>
<stop offset="1" stop-color="#0066FE"/>
</linearGradient>
</defs>
</svg>
