<svg width="691" height="320" viewBox="0 0 691 320" fill="none" xmlns="http://www.w3.org/2000/svg">
<g clip-path="url(#clip0_758_15195)">
<rect x="154.061" y="-224.148" width="383" height="820" fill="#E8E8E8"/>
<rect x="154.061" y="-224.148" width="383" height="820" stroke="#767676" stroke-width="8"/>
<g clip-path="url(#clip1_758_15195)">
<path d="M351.196 124.877L354.19 127.871C354.764 128.445 354.764 129.375 354.19 129.951C353.616 130.526 352.684 130.526 352.11 129.951L349.116 126.957C347.954 127.727 346.559 128.176 345.061 128.176C341.001 128.176 337.708 124.883 337.708 120.822C337.708 116.762 341.001 113.469 345.061 113.469C349.122 113.469 352.415 116.762 352.415 120.822C352.415 122.321 351.965 123.715 351.196 124.877ZM345.061 125.235C347.498 125.235 349.473 123.258 349.473 120.822C349.473 118.385 347.498 116.41 345.061 116.41C342.623 116.41 340.649 118.385 340.649 120.822C340.649 123.258 342.623 125.235 345.061 125.235ZM322.555 95.3751C321.971 95.9395 321.041 95.9239 320.475 95.3419C319.91 94.7579 319.924 93.8263 320.508 93.2618C334.185 80.0098 355.935 80.0098 369.613 93.2618C370.197 93.8262 370.211 94.7579 369.647 95.3419C369.08 95.9239 368.151 95.9395 367.567 95.3751C355.03 83.2266 335.092 83.2266 322.555 95.3751ZM329.463 102.283C328.889 102.857 327.957 102.857 327.383 102.283C326.809 101.709 326.809 100.777 327.383 100.203C337.146 90.4395 352.975 90.4395 362.738 100.203C363.312 100.777 363.312 101.709 362.738 102.283C362.164 102.857 361.232 102.857 360.658 102.283C352.045 93.6681 338.076 93.6681 329.463 102.283ZM336.742 108.826C336.168 109.4 335.237 109.4 334.662 108.826C334.088 108.252 334.088 107.322 334.662 106.746C340.404 101.004 349.717 101.004 355.459 106.746C356.033 107.322 356.033 108.252 355.459 108.826C354.885 109.4 353.953 109.4 353.379 108.826C348.785 104.232 341.336 104.232 336.742 108.826Z" fill="#656667"/>
</g>
<path d="M268.338 184.852V168.244H271.938L274.578 172.66C275.37 173.98 276.498 176.068 276.954 177.052H277.026C277.002 175.972 276.978 174.46 276.978 173.5V168.244H280.89V184.852H277.338L274.65 180.316C273.786 178.852 272.73 176.908 272.274 175.948H272.202C272.226 177.028 272.25 178.516 272.25 179.476V184.852H268.338ZM288.907 185.044C287.275 185.044 285.787 184.66 284.731 183.724C283.699 182.812 283.147 181.42 283.147 179.572V177.604C283.147 175.612 283.771 174.292 284.731 173.428C285.715 172.54 287.203 172.108 288.907 172.108C290.539 172.108 292.027 172.492 293.083 173.428C294.115 174.34 294.667 175.756 294.667 177.604V179.572C294.667 181.564 294.043 182.86 293.083 183.724C292.027 184.66 290.539 185.044 288.907 185.044ZM288.907 181.924C289.459 181.924 289.867 181.78 290.131 181.468C290.419 181.108 290.539 180.58 290.539 179.884V177.268C290.539 176.572 290.419 176.044 290.131 175.684C289.867 175.372 289.459 175.228 288.907 175.228C288.355 175.228 287.947 175.372 287.683 175.684C287.395 176.044 287.275 176.572 287.275 177.268V179.884C287.275 180.58 287.395 181.108 287.683 181.468C287.947 181.78 288.355 181.924 288.907 181.924ZM308.257 185.044C306.241 185.044 304.633 184.492 303.505 183.388C302.353 182.26 301.729 180.556 301.729 178.3V174.796C301.729 172.54 302.353 170.836 303.505 169.708C304.633 168.604 306.241 168.052 308.257 168.052C310.057 168.052 311.353 168.484 312.361 169.204C313.489 170.02 314.281 171.244 314.617 173.212L310.849 174.148C310.633 173.308 310.345 172.708 309.913 172.3C309.481 171.892 308.929 171.7 308.281 171.7C307.561 171.7 307.009 171.916 306.601 172.324C306.169 172.78 305.953 173.428 305.953 174.268V178.828C305.953 179.668 306.145 180.316 306.601 180.772C307.009 181.18 307.561 181.396 308.281 181.396C308.929 181.396 309.481 181.204 309.913 180.796C310.345 180.388 310.633 179.788 310.849 178.948L314.617 179.884C314.281 181.852 313.489 183.076 312.361 183.892C311.353 184.612 310.057 185.044 308.257 185.044ZM322.188 185.044C320.556 185.044 319.068 184.66 318.012 183.724C316.98 182.812 316.428 181.42 316.428 179.572V177.604C316.428 175.612 317.052 174.292 318.012 173.428C318.996 172.54 320.484 172.108 322.188 172.108C323.82 172.108 325.308 172.492 326.364 173.428C327.396 174.34 327.948 175.756 327.948 177.604V179.572C327.948 181.564 327.324 182.86 326.364 183.724C325.308 184.66 323.82 185.044 322.188 185.044ZM322.188 181.924C322.74 181.924 323.148 181.78 323.412 181.468C323.7 181.108 323.82 180.58 323.82 179.884V177.268C323.82 176.572 323.7 176.044 323.412 175.684C323.148 175.372 322.74 175.228 322.188 175.228C321.636 175.228 321.228 175.372 320.964 175.684C320.676 176.044 320.556 176.572 320.556 177.268V179.884C320.556 180.58 320.676 181.108 320.964 181.468C321.228 181.78 321.636 181.924 322.188 181.924ZM340.141 173.332C340.765 174.1 341.125 175.204 341.125 176.716V184.852H337.021V177.172C337.021 176.644 336.949 176.212 336.709 175.9C336.541 175.684 336.229 175.468 335.677 175.468C335.245 175.468 334.885 175.612 334.621 175.852C334.285 176.164 334.117 176.644 334.117 177.268V184.852H330.013V172.3H333.829V173.764C334.621 172.78 335.869 172.108 337.333 172.108C338.461 172.108 339.469 172.516 340.141 173.332ZM353.508 173.332C354.132 174.1 354.492 175.204 354.492 176.716V184.852H350.388V177.172C350.388 176.644 350.316 176.212 350.076 175.9C349.908 175.684 349.596 175.468 349.044 175.468C348.612 175.468 348.252 175.612 347.988 175.852C347.652 176.164 347.484 176.644 347.484 177.268V184.852H343.38V172.3H347.196V173.764C347.988 172.78 349.236 172.108 350.7 172.108C351.828 172.108 352.836 172.516 353.508 173.332ZM367.644 179.764H360.564V179.884C360.564 180.532 360.732 181.06 361.092 181.396C361.38 181.66 361.764 181.804 362.268 181.804C362.652 181.804 362.964 181.732 363.324 181.492C363.588 181.324 363.804 181.06 363.996 180.748L367.5 181.828C367.068 183.028 366.276 183.868 365.22 184.396C364.356 184.828 363.276 185.044 362.052 185.044C360.348 185.044 359.004 184.636 358.068 183.82C357.012 182.908 356.46 181.516 356.46 179.62V177.604C356.46 175.612 357.084 174.292 358.044 173.428C359.028 172.54 360.348 172.108 362.052 172.108C363.612 172.108 365.004 172.492 366.06 173.428C367.092 174.34 367.644 175.756 367.644 177.604V179.764ZM360.9 175.612C360.612 175.972 360.564 176.452 360.564 177.148V177.292H363.564V177.148C363.564 176.452 363.516 175.972 363.228 175.612C362.964 175.3 362.604 175.132 362.076 175.132C361.524 175.132 361.164 175.3 360.9 175.612ZM374.686 185.044C372.958 185.044 371.638 184.492 370.774 183.676C369.814 182.764 369.358 181.492 369.358 179.62V177.508C369.358 175.708 369.814 174.364 370.75 173.452C371.662 172.564 373.006 172.108 374.71 172.108C376.102 172.108 377.278 172.42 378.166 173.02C379.102 173.644 379.654 174.508 379.99 175.516L376.534 176.692C376.342 176.26 376.126 175.924 375.862 175.708C375.598 175.492 375.262 175.372 374.854 175.372C374.374 175.372 374.014 175.54 373.798 175.852C373.558 176.188 373.486 176.692 373.486 177.292V179.836C373.486 180.436 373.558 180.94 373.798 181.276C374.014 181.588 374.374 181.756 374.854 181.756C375.262 181.756 375.598 181.636 375.862 181.42C376.126 181.204 376.342 180.868 376.534 180.436L379.99 181.612C379.606 182.74 379.054 183.532 378.142 184.108C377.278 184.66 376.126 185.044 374.686 185.044ZM388.806 175.54H386.43V180.964C386.43 181.444 386.622 181.588 387.054 181.588H388.806V184.852H385.566C383.43 184.852 382.326 183.868 382.326 181.492V175.54H380.838V172.3H382.326V168.556H386.43V172.3H388.806V175.54ZM391.108 170.716V167.332H395.26V170.716H391.108ZM391.132 184.852V172.3H395.236V184.852H391.132ZM403.126 185.044C401.494 185.044 400.006 184.66 398.95 183.724C397.918 182.812 397.366 181.42 397.366 179.572V177.604C397.366 175.612 397.99 174.292 398.95 173.428C399.934 172.54 401.422 172.108 403.126 172.108C404.758 172.108 406.246 172.492 407.302 173.428C408.334 174.34 408.886 175.756 408.886 177.604V179.572C408.886 181.564 408.262 182.86 407.302 183.724C406.246 184.66 404.758 185.044 403.126 185.044ZM403.126 181.924C403.678 181.924 404.086 181.78 404.35 181.468C404.638 181.108 404.758 180.58 404.758 179.884V177.268C404.758 176.572 404.638 176.044 404.35 175.684C404.086 175.372 403.678 175.228 403.126 175.228C402.574 175.228 402.166 175.372 401.902 175.684C401.614 176.044 401.494 176.572 401.494 177.268V179.884C401.494 180.58 401.614 181.108 401.902 181.468C402.166 181.78 402.574 181.924 403.126 181.924ZM421.079 173.332C421.703 174.1 422.063 175.204 422.063 176.716V184.852H417.959V177.172C417.959 176.644 417.887 176.212 417.647 175.9C417.479 175.684 417.167 175.468 416.615 175.468C416.183 175.468 415.823 175.612 415.559 175.852C415.223 176.164 415.055 176.644 415.055 177.268V184.852H410.951V172.3H414.767V173.764C415.559 172.78 416.807 172.108 418.271 172.108C419.399 172.108 420.407 172.516 421.079 173.332Z" fill="#767676"/>
<path d="M200.757 212.852V201.876H204.005C206.549 201.876 207.909 202.836 207.909 205.14V205.716C207.909 207.956 206.533 209.028 204.053 209.028H202.437V212.852H200.757ZM202.437 207.652H203.925C205.397 207.652 206.213 207.14 206.213 205.668V205.22C206.213 203.748 205.413 203.268 203.941 203.268H202.437V207.652ZM211.565 212.852C210.237 212.852 209.645 212.212 209.645 210.948V201.268H211.277V210.756C211.277 211.3 211.485 211.508 212.013 211.508H212.573V212.852H211.565ZM220.642 208.228V209.188H215.474C215.474 210.084 215.618 210.772 216.082 211.204C216.386 211.492 216.802 211.636 217.33 211.636C217.81 211.636 218.162 211.524 218.482 211.284C218.77 211.06 218.994 210.756 219.154 210.372L220.594 210.836C220.338 211.54 219.938 212.052 219.41 212.404C218.85 212.788 218.146 212.98 217.314 212.98C216.354 212.98 215.522 212.74 214.914 212.228C214.178 211.604 213.842 210.612 213.842 209.22V208.228C213.842 206.788 214.21 205.828 214.93 205.22C215.474 204.74 216.242 204.452 217.25 204.452C218.21 204.452 218.994 204.74 219.554 205.22C220.29 205.844 220.642 206.804 220.642 208.228ZM216.034 206.212C215.634 206.596 215.506 207.252 215.474 208.02H219.026C218.994 207.252 218.866 206.612 218.45 206.212C218.162 205.924 217.778 205.764 217.266 205.764C216.818 205.764 216.37 205.876 216.034 206.212ZM227.91 205.204C228.47 205.732 228.742 206.516 228.742 207.444V212.852H227.222V211.956C226.726 212.596 225.894 212.98 224.87 212.98C223.126 212.98 222.134 211.924 222.134 210.452V210.308C222.134 209.508 222.406 208.964 222.806 208.596C223.302 208.148 224.022 207.94 224.982 207.94H227.11V207.508C227.11 206.836 226.934 206.452 226.678 206.18C226.422 205.924 226.054 205.78 225.558 205.78C224.806 205.78 224.23 206.148 223.894 206.724L222.454 206.244C222.998 205.124 224.15 204.452 225.622 204.452C226.726 204.452 227.43 204.756 227.91 205.204ZM225.27 211.716C226.294 211.716 227.11 211.108 227.11 210.148V209.092H225.254C224.71 209.092 224.342 209.188 224.086 209.396C223.878 209.588 223.766 209.876 223.766 210.292V210.404C223.766 211.156 224.278 211.716 225.27 211.716ZM233.519 212.98C232.751 212.98 232.111 212.836 231.599 212.58C231.007 212.308 230.543 211.892 230.255 211.364L231.439 210.596C231.711 210.98 232.031 211.268 232.415 211.46C232.751 211.62 233.151 211.7 233.567 211.7C234.511 211.7 235.103 211.268 235.103 210.564V210.548C235.103 209.86 234.703 209.62 233.647 209.348L232.815 209.108C231.279 208.724 230.431 208.116 230.431 206.804V206.756C230.431 205.268 231.663 204.452 233.519 204.452C234.175 204.452 234.783 204.564 235.327 204.804C235.871 205.028 236.287 205.364 236.591 205.86L235.455 206.644C235.247 206.388 235.007 206.164 234.687 206.02C234.335 205.828 233.919 205.732 233.439 205.732C232.495 205.732 231.999 206.116 231.999 206.74V206.772C231.999 207.396 232.559 207.604 233.487 207.844L234.319 208.084C235.871 208.468 236.655 209.044 236.655 210.5V210.548C236.655 212.1 235.391 212.98 233.519 212.98ZM244.86 208.228V209.188H239.692C239.692 210.084 239.836 210.772 240.3 211.204C240.604 211.492 241.02 211.636 241.548 211.636C242.028 211.636 242.38 211.524 242.7 211.284C242.988 211.06 243.212 210.756 243.372 210.372L244.812 210.836C244.556 211.54 244.156 212.052 243.628 212.404C243.068 212.788 242.364 212.98 241.532 212.98C240.572 212.98 239.74 212.74 239.132 212.228C238.396 211.604 238.06 210.612 238.06 209.22V208.228C238.06 206.788 238.428 205.828 239.148 205.22C239.692 204.74 240.46 204.452 241.468 204.452C242.428 204.452 243.212 204.74 243.772 205.22C244.508 205.844 244.86 206.804 244.86 208.228ZM240.252 206.212C239.852 206.596 239.724 207.252 239.692 208.02H243.244C243.212 207.252 243.084 206.612 242.668 206.212C242.38 205.924 241.996 205.764 241.484 205.764C241.036 205.764 240.588 205.876 240.252 206.212ZM260.783 205.252C261.263 205.78 261.471 206.58 261.471 207.492V212.852H259.839V207.716C259.839 207.076 259.711 206.612 259.455 206.292C259.215 206.004 258.831 205.844 258.335 205.844C257.871 205.844 257.439 205.988 257.167 206.26C256.815 206.612 256.655 207.14 256.655 207.876V212.852H255.023V207.716C255.023 207.076 254.895 206.612 254.623 206.292C254.383 206.004 254.015 205.844 253.503 205.844C253.039 205.844 252.623 205.988 252.351 206.26C251.999 206.612 251.823 207.14 251.823 207.876V212.852H250.191V204.58H251.711V205.508C252.191 204.884 253.007 204.452 253.999 204.452C254.783 204.452 255.503 204.74 255.951 205.252C256.095 205.396 256.207 205.572 256.303 205.764C256.751 205.028 257.711 204.452 258.831 204.452C259.615 204.452 260.319 204.74 260.783 205.252ZM268.926 205.204C269.486 205.732 269.758 206.516 269.758 207.444V212.852H268.238V211.956C267.742 212.596 266.91 212.98 265.886 212.98C264.142 212.98 263.15 211.924 263.15 210.452V210.308C263.15 209.508 263.422 208.964 263.822 208.596C264.318 208.148 265.038 207.94 265.998 207.94H268.126V207.508C268.126 206.836 267.95 206.452 267.694 206.18C267.438 205.924 267.07 205.78 266.574 205.78C265.822 205.78 265.246 206.148 264.91 206.724L263.47 206.244C264.014 205.124 265.166 204.452 266.638 204.452C267.742 204.452 268.446 204.756 268.926 205.204ZM266.286 211.716C267.31 211.716 268.126 211.108 268.126 210.148V209.092H266.27C265.726 209.092 265.358 209.188 265.102 209.396C264.894 209.588 264.782 209.876 264.782 210.292V210.404C264.782 211.156 265.294 211.716 266.286 211.716ZM277.111 212.852C276.423 211.732 275.607 210.452 274.839 209.252L273.511 210.756V212.852H271.879V201.268H273.511V208.804L276.855 204.58H278.727L275.863 208.036C276.871 209.524 277.991 211.268 278.967 212.852H277.111ZM286.501 208.228V209.188H281.333C281.333 210.084 281.477 210.772 281.941 211.204C282.245 211.492 282.661 211.636 283.189 211.636C283.669 211.636 284.021 211.524 284.341 211.284C284.629 211.06 284.853 210.756 285.013 210.372L286.453 210.836C286.197 211.54 285.797 212.052 285.269 212.404C284.709 212.788 284.005 212.98 283.173 212.98C282.213 212.98 281.381 212.74 280.773 212.228C280.037 211.604 279.701 210.612 279.701 209.22V208.228C279.701 206.788 280.069 205.828 280.789 205.22C281.333 204.74 282.101 204.452 283.109 204.452C284.069 204.452 284.853 204.74 285.413 205.22C286.149 205.844 286.501 206.804 286.501 208.228ZM281.893 206.212C281.493 206.596 281.365 207.252 281.333 208.02H284.885C284.853 207.252 284.725 206.612 284.309 206.212C284.021 205.924 283.637 205.764 283.125 205.764C282.677 205.764 282.229 205.876 281.893 206.212ZM294.488 212.98C293.72 212.98 293.08 212.836 292.568 212.58C291.976 212.308 291.512 211.892 291.224 211.364L292.408 210.596C292.68 210.98 293 211.268 293.384 211.46C293.72 211.62 294.12 211.7 294.536 211.7C295.48 211.7 296.072 211.268 296.072 210.564V210.548C296.072 209.86 295.672 209.62 294.616 209.348L293.784 209.108C292.248 208.724 291.4 208.116 291.4 206.804V206.756C291.4 205.268 292.632 204.452 294.488 204.452C295.144 204.452 295.752 204.564 296.296 204.804C296.84 205.028 297.256 205.364 297.56 205.86L296.424 206.644C296.216 206.388 295.976 206.164 295.656 206.02C295.304 205.828 294.888 205.732 294.408 205.732C293.464 205.732 292.968 206.116 292.968 206.74V206.772C292.968 207.396 293.528 207.604 294.456 207.844L295.288 208.084C296.84 208.468 297.624 209.044 297.624 210.5V210.548C297.624 212.1 296.36 212.98 294.488 212.98ZM302.485 212.98C301.301 212.98 300.469 212.676 299.925 212.068C299.429 211.524 299.189 210.74 299.189 209.716V204.58H300.821V209.748C300.821 210.356 300.949 210.852 301.221 211.172C301.493 211.492 301.909 211.668 302.485 211.668C303.061 211.668 303.461 211.492 303.733 211.172C304.005 210.852 304.133 210.356 304.133 209.748V204.58H305.765V209.716C305.765 210.74 305.525 211.524 305.029 212.068C304.485 212.676 303.653 212.98 302.485 212.98ZM311.543 204.452H312.295V205.876H311.271C310.199 205.876 309.511 206.5 309.511 207.716V212.852H307.879V204.58H309.399V205.508C309.863 204.788 310.679 204.452 311.543 204.452ZM320.001 208.228V209.188H314.833C314.833 210.084 314.977 210.772 315.441 211.204C315.745 211.492 316.161 211.636 316.689 211.636C317.169 211.636 317.521 211.524 317.841 211.284C318.129 211.06 318.353 210.756 318.513 210.372L319.953 210.836C319.697 211.54 319.297 212.052 318.769 212.404C318.209 212.788 317.505 212.98 316.673 212.98C315.713 212.98 314.881 212.74 314.273 212.228C313.537 211.604 313.201 210.612 313.201 209.22V208.228C313.201 206.788 313.569 205.828 314.289 205.22C314.833 204.74 315.601 204.452 316.609 204.452C317.569 204.452 318.353 204.74 318.913 205.22C319.649 205.844 320.001 206.804 320.001 208.228ZM315.393 206.212C314.993 206.596 314.865 207.252 314.833 208.02H318.385C318.353 207.252 318.225 206.612 317.809 206.212C317.521 205.924 317.137 205.764 316.625 205.764C316.177 205.764 315.729 205.876 315.393 206.212ZM329.681 204.58H331.441C330.545 207.46 329.281 211.332 328.449 213.748C327.761 215.7 326.977 216.164 325.649 216.164H324.673V214.836H325.281C326.129 214.836 326.497 214.66 326.769 213.988C326.865 213.78 326.961 213.508 327.057 213.252C326.161 210.948 324.897 207.332 323.969 204.58H325.745C326.369 206.516 327.233 209.332 327.809 211.028H327.889C328.385 209.332 329.153 206.516 329.681 204.58ZM335.878 212.98C334.886 212.98 334.022 212.74 333.414 212.212C332.694 211.588 332.342 210.596 332.342 209.22V208.228C332.342 206.82 332.71 205.828 333.414 205.22C334.022 204.708 334.886 204.452 335.878 204.452C336.87 204.452 337.734 204.708 338.342 205.22C339.062 205.844 339.414 206.852 339.414 208.228V209.22C339.414 210.628 339.046 211.604 338.342 212.212C337.734 212.74 336.87 212.98 335.878 212.98ZM335.878 211.652C336.454 211.652 336.902 211.508 337.19 211.22C337.622 210.788 337.782 210.068 337.782 209.14V208.308C337.782 207.364 337.622 206.644 337.19 206.228C336.902 205.94 336.454 205.78 335.878 205.78C335.318 205.78 334.886 205.924 334.566 206.228C334.118 206.66 333.974 207.38 333.974 208.308V209.14C333.974 210.068 334.134 210.788 334.566 211.22C334.854 211.508 335.302 211.652 335.878 211.652ZM344.579 212.98C343.395 212.98 342.563 212.676 342.019 212.068C341.523 211.524 341.283 210.74 341.283 209.716V204.58H342.915V209.748C342.915 210.356 343.043 210.852 343.315 211.172C343.587 211.492 344.003 211.668 344.579 211.668C345.155 211.668 345.555 211.492 345.827 211.172C346.099 210.852 346.227 210.356 346.227 209.748V204.58H347.859V209.716C347.859 210.74 347.619 211.524 347.123 212.068C346.579 212.676 345.747 212.98 344.579 212.98ZM353.637 204.452H354.389V205.876H353.365C352.293 205.876 351.605 206.5 351.605 207.716V212.852H349.973V204.58H351.493V205.508C351.957 204.788 352.773 204.452 353.637 204.452ZM360.446 212.852C359.55 209.38 358.638 205.588 357.774 201.876H359.534C359.87 203.572 360.254 205.428 360.67 207.22C360.91 208.292 361.198 209.7 361.438 210.916H361.518C361.726 209.764 362.03 208.276 362.27 207.188C362.654 205.428 363.038 203.588 363.422 201.876H365.086C365.486 203.604 365.902 205.54 366.254 207.172C366.494 208.244 366.846 209.86 367.038 210.916H367.118C367.294 209.956 367.63 208.34 367.886 207.22C368.238 205.604 368.622 203.78 369.006 201.876H370.75C369.902 205.636 369.006 209.412 368.11 212.852H366.094L365.118 208.532C364.798 207.204 364.51 205.604 364.302 204.212H364.222C364.03 205.604 363.742 207.172 363.438 208.548C363.118 209.956 362.766 211.524 362.446 212.852H360.446ZM372.489 203.044V201.268H374.153V203.044H372.489ZM372.505 212.852V204.58H374.137V212.852H372.505ZM376.523 212.852V201.876H382.475V203.316H378.203V206.948H382.091V208.372H378.203V212.852H376.523ZM384.177 203.044V201.268H385.841V203.044H384.177ZM384.193 212.852V204.58H385.825V212.852H384.193ZM394.768 212.98C393.776 212.98 392.912 212.74 392.304 212.212C391.584 211.588 391.232 210.596 391.232 209.22V208.228C391.232 206.82 391.6 205.828 392.304 205.22C392.912 204.708 393.776 204.452 394.768 204.452C395.76 204.452 396.624 204.708 397.232 205.22C397.952 205.844 398.304 206.852 398.304 208.228V209.22C398.304 210.628 397.936 211.604 397.232 212.212C396.624 212.74 395.76 212.98 394.768 212.98ZM394.768 211.652C395.344 211.652 395.792 211.508 396.08 211.22C396.512 210.788 396.672 210.068 396.672 209.14V208.308C396.672 207.364 396.512 206.644 396.08 206.228C395.792 205.94 395.344 205.78 394.768 205.78C394.208 205.78 393.776 205.924 393.456 206.228C393.008 206.66 392.864 207.38 392.864 208.308V209.14C392.864 210.068 393.024 210.788 393.456 211.22C393.744 211.508 394.192 211.652 394.768 211.652ZM403.934 204.452H404.686V205.876H403.662C402.59 205.876 401.902 206.5 401.902 207.716V212.852H400.27V204.58H401.79V205.508C402.254 204.788 403.07 204.452 403.934 204.452ZM409.366 212.852V201.876H411.526L413.062 206.356C413.606 207.956 414.15 209.684 414.502 210.804H414.55C414.918 209.636 415.43 207.956 415.926 206.388L417.43 201.876H419.59V212.852H418.006V208.724C418.006 207.588 418.038 205.796 418.086 204.308H418.022C417.702 205.428 417.35 206.612 416.966 207.732L415.222 212.852H413.766L411.99 207.7C411.638 206.644 411.254 205.46 410.95 204.388H410.886C410.934 205.86 410.95 207.492 410.95 208.708V212.852H409.366ZM425.206 212.98C424.214 212.98 423.35 212.74 422.742 212.212C422.022 211.588 421.67 210.596 421.67 209.22V208.228C421.67 206.82 422.038 205.828 422.742 205.22C423.35 204.708 424.214 204.452 425.206 204.452C426.198 204.452 427.062 204.708 427.67 205.22C428.39 205.844 428.742 206.852 428.742 208.228V209.22C428.742 210.628 428.374 211.604 427.67 212.212C427.062 212.74 426.198 212.98 425.206 212.98ZM425.206 211.652C425.782 211.652 426.23 211.508 426.518 211.22C426.95 210.788 427.11 210.068 427.11 209.14V208.308C427.11 207.364 426.95 206.644 426.518 206.228C426.23 205.94 425.782 205.78 425.206 205.78C424.646 205.78 424.214 205.924 423.894 206.228C423.446 206.66 423.302 207.38 423.302 208.308V209.14C423.302 210.068 423.462 210.788 423.894 211.22C424.182 211.508 424.63 211.652 425.206 211.652ZM436.835 205.316C437.395 205.924 437.667 206.868 437.667 207.94V209.492C437.667 210.58 437.395 211.524 436.835 212.132C436.339 212.692 435.587 212.98 434.723 212.98C433.635 212.98 432.755 212.532 432.243 211.844V212.852H430.707V201.268H432.339V205.476C432.867 204.868 433.699 204.452 434.723 204.452C435.587 204.452 436.339 204.756 436.835 205.316ZM436.035 209.284V208.164C436.035 207.3 435.859 206.724 435.539 206.356C435.235 206.004 434.819 205.844 434.275 205.844C433.155 205.844 432.339 206.548 432.339 207.812V209.636C432.339 210.9 433.155 211.604 434.275 211.604C434.819 211.604 435.235 211.428 435.539 211.092C435.859 210.724 436.035 210.132 436.035 209.284ZM439.661 203.044V201.268H441.325V203.044H439.661ZM439.677 212.852V204.58H441.309V212.852H439.677ZM445.486 212.852C444.158 212.852 443.566 212.212 443.566 210.948V201.268H445.198V210.756C445.198 211.3 445.406 211.508 445.934 211.508H446.494V212.852H445.486ZM454.564 208.228V209.188H449.396C449.396 210.084 449.54 210.772 450.004 211.204C450.308 211.492 450.724 211.636 451.252 211.636C451.732 211.636 452.084 211.524 452.404 211.284C452.692 211.06 452.916 210.756 453.076 210.372L454.516 210.836C454.26 211.54 453.86 212.052 453.332 212.404C452.772 212.788 452.068 212.98 451.236 212.98C450.276 212.98 449.444 212.74 448.836 212.228C448.1 211.604 447.764 210.612 447.764 209.22V208.228C447.764 206.788 448.132 205.828 448.852 205.22C449.396 204.74 450.164 204.452 451.172 204.452C452.132 204.452 452.916 204.74 453.476 205.22C454.212 205.844 454.564 206.804 454.564 208.228ZM449.956 206.212C449.556 206.596 449.428 207.252 449.396 208.02H452.948C452.916 207.252 452.788 206.612 452.372 206.212C452.084 205.924 451.7 205.764 451.188 205.764C450.74 205.764 450.292 205.876 449.956 206.212ZM460.023 212.852V201.876H463.447C464.967 201.876 466.023 202.228 466.663 202.852C467.367 203.54 467.703 204.564 467.703 206.02V208.676C467.703 210.196 467.335 211.172 466.647 211.844C465.943 212.532 464.887 212.852 463.447 212.852H460.023ZM461.703 211.46H463.383C464.327 211.46 464.967 211.268 465.367 210.852C465.815 210.42 466.023 209.78 466.023 208.772V205.94C466.023 205.06 465.847 204.276 465.383 203.844C464.967 203.444 464.343 203.268 463.383 203.268H461.703V211.46ZM474.973 205.204C475.533 205.732 475.805 206.516 475.805 207.444V212.852H474.285V211.956C473.789 212.596 472.957 212.98 471.933 212.98C470.189 212.98 469.197 211.924 469.197 210.452V210.308C469.197 209.508 469.469 208.964 469.869 208.596C470.365 208.148 471.085 207.94 472.045 207.94H474.173V207.508C474.173 206.836 473.997 206.452 473.741 206.18C473.485 205.924 473.117 205.78 472.621 205.78C471.869 205.78 471.293 206.148 470.957 206.724L469.517 206.244C470.061 205.124 471.213 204.452 472.685 204.452C473.789 204.452 474.493 204.756 474.973 205.204ZM472.333 211.716C473.357 211.716 474.173 211.108 474.173 210.148V209.092H472.317C471.773 209.092 471.405 209.188 471.149 209.396C470.941 209.588 470.829 209.876 470.829 210.292V210.404C470.829 211.156 471.341 211.716 472.333 211.716ZM481.83 205.924H479.926V210.724C479.926 211.316 480.134 211.508 480.662 211.508H481.782V212.852H480.134C478.966 212.852 478.294 212.26 478.294 210.996V205.924H477.014V204.58H478.294V202.196H479.926V204.58H481.83V205.924ZM489.004 205.204C489.564 205.732 489.836 206.516 489.836 207.444V212.852H488.316V211.956C487.82 212.596 486.988 212.98 485.964 212.98C484.22 212.98 483.228 211.924 483.228 210.452V210.308C483.228 209.508 483.5 208.964 483.9 208.596C484.396 208.148 485.116 207.94 486.076 207.94H488.204V207.508C488.204 206.836 488.028 206.452 487.772 206.18C487.516 205.924 487.148 205.78 486.652 205.78C485.9 205.78 485.324 206.148 484.988 206.724L483.548 206.244C484.092 205.124 485.244 204.452 486.716 204.452C487.82 204.452 488.524 204.756 489.004 205.204ZM486.364 211.716C487.388 211.716 488.204 211.108 488.204 210.148V209.092H486.348C485.804 209.092 485.436 209.188 485.18 209.396C484.972 209.588 484.86 209.876 484.86 210.292V210.404C484.86 211.156 485.372 211.716 486.364 211.716ZM239.145 227.044V225.268H240.809V227.044H239.145ZM239.161 236.852V228.58H240.793V236.852H239.161ZM245.707 236.98C244.939 236.98 244.299 236.836 243.787 236.58C243.195 236.308 242.731 235.892 242.443 235.364L243.627 234.596C243.899 234.98 244.219 235.268 244.603 235.46C244.939 235.62 245.339 235.7 245.755 235.7C246.699 235.7 247.291 235.268 247.291 234.564V234.548C247.291 233.86 246.891 233.62 245.835 233.348L245.003 233.108C243.467 232.724 242.619 232.116 242.619 230.804V230.756C242.619 229.268 243.851 228.452 245.707 228.452C246.363 228.452 246.971 228.564 247.515 228.804C248.059 229.028 248.475 229.364 248.779 229.86L247.643 230.644C247.435 230.388 247.195 230.164 246.875 230.02C246.523 229.828 246.107 229.732 245.627 229.732C244.683 229.732 244.187 230.116 244.187 230.74V230.772C244.187 231.396 244.747 231.604 245.675 231.844L246.507 232.084C248.059 232.468 248.843 233.044 248.843 234.5V234.548C248.843 236.1 247.579 236.98 245.707 236.98ZM257.439 229.924H255.535V234.724C255.535 235.316 255.743 235.508 256.271 235.508H257.391V236.852H255.743C254.575 236.852 253.903 236.26 253.903 234.996V229.924H252.623V228.58H253.903V226.196H255.535V228.58H257.439V229.924ZM262.579 236.98C261.395 236.98 260.563 236.676 260.019 236.068C259.523 235.524 259.283 234.74 259.283 233.716V228.58H260.915V233.748C260.915 234.356 261.043 234.852 261.315 235.172C261.587 235.492 262.003 235.668 262.579 235.668C263.155 235.668 263.555 235.492 263.827 235.172C264.099 234.852 264.227 234.356 264.227 233.748V228.58H265.859V233.716C265.859 234.74 265.619 235.524 265.123 236.068C264.579 236.676 263.747 236.98 262.579 236.98ZM271.637 228.452H272.389V229.876H271.365C270.293 229.876 269.605 230.5 269.605 231.716V236.852H267.973V228.58H269.493V229.508C269.957 228.788 270.773 228.452 271.637 228.452ZM279.817 229.316C280.249 229.844 280.489 230.564 280.489 231.492V236.852H278.857V231.684C278.857 231.108 278.745 230.66 278.489 230.324C278.217 230.02 277.833 229.844 277.273 229.844C276.777 229.844 276.329 230.004 276.009 230.292C275.641 230.628 275.433 231.156 275.433 231.892V236.852H273.801V228.58H275.321V229.556C275.833 228.9 276.729 228.452 277.753 228.452C278.633 228.452 279.353 228.772 279.817 229.316ZM289.157 232.228V233.188H283.989C283.989 234.084 284.133 234.772 284.597 235.204C284.901 235.492 285.317 235.636 285.845 235.636C286.325 235.636 286.677 235.524 286.997 235.284C287.285 235.06 287.509 234.756 287.669 234.372L289.109 234.836C288.853 235.54 288.453 236.052 287.925 236.404C287.365 236.788 286.661 236.98 285.829 236.98C284.869 236.98 284.037 236.74 283.429 236.228C282.693 235.604 282.357 234.612 282.357 233.22V232.228C282.357 230.788 282.725 229.828 283.445 229.22C283.989 228.74 284.757 228.452 285.765 228.452C286.725 228.452 287.509 228.74 288.069 229.22C288.805 229.844 289.157 230.804 289.157 232.228ZM284.549 230.212C284.149 230.596 284.021 231.252 283.989 232.02H287.541C287.509 231.252 287.381 230.612 286.965 230.212C286.677 229.924 286.293 229.764 285.781 229.764C285.333 229.764 284.885 229.876 284.549 230.212ZM296.154 225.268H297.786V236.852H296.25V235.828C295.738 236.532 294.842 236.98 293.77 236.98C292.906 236.98 292.154 236.692 291.642 236.132C291.098 235.524 290.826 234.58 290.826 233.492V231.94C290.826 230.868 291.098 229.924 291.642 229.316C292.154 228.756 292.906 228.452 293.77 228.452C294.778 228.452 295.626 228.868 296.154 229.492V225.268ZM294.218 235.604C295.322 235.604 296.154 234.9 296.154 233.636V231.812C296.154 230.548 295.322 229.844 294.218 229.844C293.674 229.844 293.242 230.004 292.954 230.356C292.634 230.724 292.458 231.3 292.458 232.164V233.284C292.458 234.132 292.634 234.724 292.954 235.092C293.242 235.428 293.674 235.604 294.218 235.604ZM306.69 236.98C305.698 236.98 304.834 236.74 304.226 236.212C303.506 235.588 303.154 234.596 303.154 233.22V232.228C303.154 230.82 303.522 229.828 304.226 229.22C304.834 228.708 305.698 228.452 306.69 228.452C307.682 228.452 308.546 228.708 309.154 229.22C309.874 229.844 310.226 230.852 310.226 232.228V233.22C310.226 234.628 309.858 235.604 309.154 236.212C308.546 236.74 307.682 236.98 306.69 236.98ZM306.69 235.652C307.266 235.652 307.714 235.508 308.002 235.22C308.434 234.788 308.594 234.068 308.594 233.14V232.308C308.594 231.364 308.434 230.644 308.002 230.228C307.714 229.94 307.266 229.78 306.69 229.78C306.13 229.78 305.698 229.924 305.378 230.228C304.93 230.66 304.786 231.38 304.786 232.308V233.14C304.786 234.068 304.946 234.788 305.378 235.22C305.666 235.508 306.114 235.652 306.69 235.652ZM318.207 229.316C318.639 229.844 318.879 230.564 318.879 231.492V236.852H317.247V231.684C317.247 231.108 317.135 230.66 316.879 230.324C316.607 230.02 316.223 229.844 315.663 229.844C315.167 229.844 314.719 230.004 314.399 230.292C314.031 230.628 313.823 231.156 313.823 231.892V236.852H312.191V228.58H313.711V229.556C314.223 228.9 315.119 228.452 316.143 228.452C317.023 228.452 317.743 228.772 318.207 229.316ZM329.754 229.204C330.314 229.732 330.586 230.516 330.586 231.444V236.852H329.066V235.956C328.57 236.596 327.738 236.98 326.714 236.98C324.97 236.98 323.978 235.924 323.978 234.452V234.308C323.978 233.508 324.25 232.964 324.65 232.596C325.146 232.148 325.866 231.94 326.826 231.94H328.954V231.508C328.954 230.836 328.778 230.452 328.522 230.18C328.266 229.924 327.898 229.78 327.402 229.78C326.65 229.78 326.074 230.148 325.738 230.724L324.298 230.244C324.842 229.124 325.994 228.452 327.466 228.452C328.57 228.452 329.274 228.756 329.754 229.204ZM327.114 235.716C328.138 235.716 328.954 235.108 328.954 234.148V233.092H327.098C326.554 233.092 326.186 233.188 325.93 233.396C325.722 233.588 325.61 233.876 325.61 234.292V234.404C325.61 235.156 326.122 235.716 327.114 235.716ZM338.723 229.316C339.155 229.844 339.395 230.564 339.395 231.492V236.852H337.763V231.684C337.763 231.108 337.651 230.66 337.395 230.324C337.123 230.02 336.739 229.844 336.179 229.844C335.683 229.844 335.235 230.004 334.915 230.292C334.547 230.628 334.339 231.156 334.339 231.892V236.852H332.707V228.58H334.227V229.556C334.739 228.9 335.635 228.452 336.659 228.452C337.539 228.452 338.259 228.772 338.723 229.316ZM346.592 225.268H348.224V236.852H346.688V235.828C346.176 236.532 345.28 236.98 344.208 236.98C343.344 236.98 342.592 236.692 342.08 236.132C341.536 235.524 341.264 234.58 341.264 233.492V231.94C341.264 230.868 341.536 229.924 342.08 229.316C342.592 228.756 343.344 228.452 344.208 228.452C345.216 228.452 346.064 228.868 346.592 229.492V225.268ZM344.656 235.604C345.76 235.604 346.592 234.9 346.592 233.636V231.812C346.592 230.548 345.76 229.844 344.656 229.844C344.112 229.844 343.68 230.004 343.392 230.356C343.072 230.724 342.896 231.3 342.896 232.164V233.284C342.896 234.132 343.072 234.724 343.392 235.092C343.68 235.428 344.112 235.604 344.656 235.604ZM357.377 229.924H355.473V234.724C355.473 235.316 355.681 235.508 356.209 235.508H357.329V236.852H355.681C354.513 236.852 353.841 236.26 353.841 234.996V229.924H352.561V228.58H353.841V226.196H355.473V228.58H357.377V229.924ZM365.332 229.316C365.764 229.844 366.004 230.564 366.004 231.492V236.852H364.372V231.684C364.372 231.108 364.26 230.66 364.004 230.324C363.732 230.02 363.348 229.844 362.788 229.844C362.292 229.844 361.844 230.004 361.524 230.292C361.156 230.628 360.948 231.156 360.948 231.892V236.852H359.316V225.268H360.948V229.412C361.476 228.836 362.308 228.452 363.268 228.452C364.148 228.452 364.868 228.772 365.332 229.316ZM374.673 232.228V233.188H369.505C369.505 234.084 369.649 234.772 370.113 235.204C370.417 235.492 370.833 235.636 371.361 235.636C371.841 235.636 372.193 235.524 372.513 235.284C372.801 235.06 373.025 234.756 373.185 234.372L374.625 234.836C374.369 235.54 373.969 236.052 373.441 236.404C372.881 236.788 372.177 236.98 371.345 236.98C370.385 236.98 369.553 236.74 368.945 236.228C368.209 235.604 367.873 234.612 367.873 233.22V232.228C367.873 230.788 368.241 229.828 368.961 229.22C369.505 228.74 370.273 228.452 371.281 228.452C372.241 228.452 373.025 228.74 373.585 229.22C374.321 229.844 374.673 230.804 374.673 232.228ZM370.065 230.212C369.665 230.596 369.537 231.252 369.505 232.02H373.057C373.025 231.252 372.897 230.612 372.481 230.212C372.193 229.924 371.809 229.764 371.297 229.764C370.849 229.764 370.401 229.876 370.065 230.212ZM382.614 229.316C383.046 229.844 383.286 230.564 383.286 231.492V236.852H381.654V231.684C381.654 231.108 381.542 230.66 381.286 230.324C381.014 230.02 380.63 229.844 380.07 229.844C379.574 229.844 379.126 230.004 378.806 230.292C378.438 230.628 378.23 231.156 378.23 231.892V236.852H376.598V228.58H378.118V229.556C378.63 228.9 379.526 228.452 380.55 228.452C381.43 228.452 382.15 228.772 382.614 229.316ZM392.345 229.924H390.441V234.724C390.441 235.316 390.649 235.508 391.177 235.508H392.297V236.852H390.649C389.481 236.852 388.809 236.26 388.809 234.996V229.924H387.529V228.58H388.809V226.196H390.441V228.58H392.345V229.924ZM397.949 228.452H398.701V229.876H397.677C396.605 229.876 395.917 230.5 395.917 231.716V236.852H394.285V228.58H395.805V229.508C396.269 228.788 397.085 228.452 397.949 228.452ZM405.228 228.58H406.988C406.092 231.46 404.828 235.332 403.996 237.748C403.308 239.7 402.524 240.164 401.196 240.164H400.22V238.836H400.828C401.676 238.836 402.044 238.66 402.316 237.988C402.412 237.78 402.508 237.508 402.604 237.252C401.708 234.948 400.444 231.332 399.516 228.58H401.292C401.916 230.516 402.78 233.332 403.356 235.028H403.436C403.932 233.332 404.7 230.516 405.228 228.58ZM416.66 229.204C417.22 229.732 417.492 230.516 417.492 231.444V236.852H415.972V235.956C415.476 236.596 414.644 236.98 413.62 236.98C411.876 236.98 410.884 235.924 410.884 234.452V234.308C410.884 233.508 411.156 232.964 411.556 232.596C412.052 232.148 412.772 231.94 413.732 231.94H415.86V231.508C415.86 230.836 415.684 230.452 415.428 230.18C415.172 229.924 414.804 229.78 414.308 229.78C413.556 229.78 412.98 230.148 412.644 230.724L411.204 230.244C411.748 229.124 412.9 228.452 414.372 228.452C415.476 228.452 416.18 228.756 416.66 229.204ZM414.02 235.716C415.044 235.716 415.86 235.108 415.86 234.148V233.092H414.004C413.46 233.092 413.092 233.188 412.836 233.396C412.628 233.588 412.516 233.876 412.516 234.292V234.404C412.516 235.156 413.028 235.716 414.02 235.716ZM424.781 228.58H426.317V237.172C426.317 239.396 424.957 240.292 423.053 240.292C421.869 240.292 420.733 239.94 419.885 239.396L420.509 238.212C421.261 238.66 422.157 238.948 422.957 238.948C424.029 238.948 424.749 238.436 424.749 237.124V235.7C424.237 236.372 423.357 236.804 422.301 236.804C421.437 236.804 420.685 236.516 420.173 235.956C419.629 235.348 419.357 234.404 419.357 233.316V231.94C419.357 230.868 419.629 229.924 420.173 229.316C420.685 228.756 421.437 228.452 422.301 228.452C423.373 228.452 424.269 228.916 424.781 229.604V228.58ZM422.749 235.428C423.853 235.428 424.685 234.724 424.685 233.46V231.812C424.685 230.548 423.853 229.844 422.749 229.844C422.205 229.844 421.773 230.004 421.485 230.356C421.165 230.724 420.989 231.3 420.989 232.164V233.108C420.989 233.956 421.165 234.548 421.485 234.916C421.773 235.252 422.205 235.428 422.749 235.428ZM433.879 229.204C434.439 229.732 434.711 230.516 434.711 231.444V236.852H433.191V235.956C432.695 236.596 431.863 236.98 430.839 236.98C429.095 236.98 428.103 235.924 428.103 234.452V234.308C428.103 233.508 428.375 232.964 428.775 232.596C429.271 232.148 429.991 231.94 430.951 231.94H433.079V231.508C433.079 230.836 432.903 230.452 432.647 230.18C432.391 229.924 432.023 229.78 431.527 229.78C430.775 229.78 430.199 230.148 429.863 230.724L428.423 230.244C428.967 229.124 430.119 228.452 431.591 228.452C432.695 228.452 433.399 228.756 433.879 229.204ZM431.239 235.716C432.263 235.716 433.079 235.108 433.079 234.148V233.092H431.223C430.679 233.092 430.311 233.188 430.055 233.396C429.847 233.588 429.735 233.876 429.735 234.292V234.404C429.735 235.156 430.247 235.716 431.239 235.716ZM436.864 227.044V225.268H438.528V227.044H436.864ZM436.88 236.852V228.58H438.512V236.852H436.88ZM446.786 229.316C447.218 229.844 447.458 230.564 447.458 231.492V236.852H445.826V231.684C445.826 231.108 445.714 230.66 445.458 230.324C445.186 230.02 444.802 229.844 444.242 229.844C443.746 229.844 443.298 230.004 442.978 230.292C442.61 230.628 442.402 231.156 442.402 231.892V236.852H440.77V228.58H442.29V229.556C442.802 228.9 443.698 228.452 444.722 228.452C445.602 228.452 446.322 228.772 446.786 229.316ZM449.518 236.852V234.916H451.07V236.852H449.518Z" fill="#767676"/>
</g>
<defs>
<clipPath id="clip0_758_15195">
<rect width="690.929" height="320" fill="white"/>
</clipPath>
<clipPath id="clip1_758_15195">
<rect width="50" height="50" fill="white" transform="translate(320.061 81.8516)"/>
</clipPath>
</defs>
</svg>
