<svg width="696" height="354" viewBox="0 0 696 354" fill="none" xmlns="http://www.w3.org/2000/svg">
<rect y="1.10205" width="694.528" height="352.539" rx="24" transform="rotate(-0.090855 0 1.10205)" fill="#F2F2F2"/>
<rect x="126.13" y="40.9023" width="28" height="28" rx="14" fill="black"/>
<path d="M142.15 56.6223L140.446 52.1663C140.323 51.8623 140.201 51.4783 140.078 51.0143C140.019 51.2437 139.958 51.457 139.894 51.6543C139.835 51.8517 139.777 52.0277 139.718 52.1823L138.022 56.6223H142.15ZM145.518 60.9023H144.206C144.057 60.9023 143.934 60.865 143.838 60.7903C143.742 60.7157 143.673 60.6197 143.63 60.5023L142.614 57.8383H137.55L136.534 60.5023C136.497 60.6037 136.427 60.697 136.326 60.7823C136.225 60.8623 136.102 60.9023 135.958 60.9023H134.646L139.222 49.4143H140.942L145.518 60.9023Z" fill="white"/>
<rect x="242.13" y="40.7183" width="28" height="28" rx="14" fill="black"/>
<path d="M256.15 59.3663C256.582 59.3663 256.95 59.3156 257.254 59.2143C257.563 59.1129 257.814 58.9743 258.006 58.7983C258.203 58.6223 258.347 58.4143 258.438 58.1743C258.528 57.9289 258.574 57.6623 258.574 57.3743C258.574 56.8036 258.376 56.3556 257.982 56.0303C257.587 55.6996 256.976 55.5343 256.15 55.5343H253.75V59.3663H256.15ZM253.75 50.5663V54.3263H255.71C256.547 54.3263 257.168 54.1583 257.574 53.8223C257.984 53.4809 258.19 53.0223 258.19 52.4463C258.19 51.7903 257.995 51.3129 257.606 51.0143C257.216 50.7156 256.611 50.5663 255.79 50.5663H253.75ZM255.79 49.2303C256.51 49.2303 257.126 49.2996 257.638 49.4383C258.155 49.5769 258.579 49.7769 258.91 50.0383C259.24 50.2996 259.483 50.6169 259.638 50.9903C259.798 51.3583 259.878 51.7769 259.878 52.2463C259.878 52.5236 259.835 52.7903 259.75 53.0463C259.664 53.3023 259.534 53.5423 259.358 53.7663C259.182 53.9849 258.96 54.1823 258.694 54.3583C258.427 54.5343 258.112 54.6809 257.75 54.7983C259.419 55.1289 260.254 56.0009 260.254 57.4143C260.254 57.9049 260.163 58.3529 259.982 58.7583C259.8 59.1583 259.536 59.5049 259.19 59.7983C258.843 60.0916 258.416 60.3183 257.91 60.4783C257.403 60.6383 256.827 60.7183 256.182 60.7183H252.046V49.2303H255.79Z" fill="white"/>
<rect x="358.13" y="40.5347" width="28" height="28" rx="14" fill="black"/>
<path d="M376.07 58.0707C376.166 58.0707 376.248 58.108 376.318 58.1827L376.99 58.9187C376.52 59.4733 375.947 59.9027 375.27 60.2067C374.598 60.5107 373.787 60.6627 372.838 60.6627C372.006 60.6627 371.251 60.5187 370.574 60.2307C369.902 59.9427 369.326 59.54 368.846 59.0227C368.371 58.5053 368.003 57.8867 367.742 57.1667C367.48 56.4467 367.35 55.6547 367.35 54.7907C367.35 53.9267 367.486 53.1347 367.758 52.4147C368.035 51.6947 368.422 51.076 368.918 50.5587C369.414 50.0413 370.006 49.6387 370.694 49.3507C371.387 49.0627 372.152 48.9187 372.99 48.9187C373.806 48.9187 374.531 49.052 375.166 49.3187C375.8 49.5853 376.352 49.94 376.822 50.3827L376.262 51.1747C376.224 51.2333 376.176 51.2813 376.118 51.3187C376.064 51.356 375.992 51.3747 375.902 51.3747C375.8 51.3747 375.68 51.324 375.542 51.2227C375.408 51.1213 375.23 51.0093 375.006 50.8867C374.787 50.7587 374.515 50.644 374.19 50.5427C373.864 50.4413 373.459 50.3907 372.974 50.3907C372.403 50.3907 371.88 50.492 371.406 50.6947C370.931 50.892 370.52 51.18 370.174 51.5587C369.832 51.932 369.566 52.3933 369.374 52.9427C369.187 53.4867 369.094 54.1027 369.094 54.7907C369.094 55.4893 369.192 56.1107 369.39 56.6547C369.587 57.1987 369.859 57.66 370.206 58.0387C370.552 58.4173 370.96 58.7053 371.43 58.9027C371.899 59.1 372.406 59.1987 372.95 59.1987C373.28 59.1987 373.576 59.18 373.838 59.1427C374.104 59.1 374.347 59.0387 374.566 58.9587C374.79 58.8787 375 58.7773 375.198 58.6547C375.395 58.5267 375.59 58.3747 375.782 58.1987C375.824 58.1613 375.87 58.132 375.918 58.1107C375.966 58.084 376.016 58.0707 376.07 58.0707Z" fill="white"/>
<rect x="474.129" y="40.3506" width="28" height="28" rx="14" fill="black"/>
<path d="M493.069 54.6066C493.069 55.4653 492.931 56.2466 492.653 56.9506C492.381 57.6546 491.995 58.2599 491.493 58.7666C490.992 59.2679 490.392 59.6573 489.693 59.9346C488.995 60.2119 488.219 60.3506 487.365 60.3506H483.045V48.8626H487.365C488.219 48.8626 488.995 49.0013 489.693 49.2786C490.392 49.5559 490.992 49.9479 491.493 50.4546C491.995 50.9559 492.381 51.5613 492.653 52.2706C492.931 52.9746 493.069 53.7533 493.069 54.6066ZM491.325 54.6066C491.325 53.9239 491.232 53.3133 491.045 52.7746C490.859 52.2306 490.592 51.7719 490.245 51.3986C489.904 51.0199 489.488 50.7319 488.997 50.5346C488.512 50.3373 487.968 50.2386 487.365 50.2386H484.757V58.9746H487.365C487.968 58.9746 488.512 58.8759 488.997 58.6786C489.488 58.4813 489.904 58.1959 490.245 57.8226C490.592 57.4439 490.859 56.9853 491.045 56.4466C491.232 55.9079 491.325 55.2946 491.325 54.6066Z" fill="white"/>
<rect x="590.129" y="40.1665" width="28" height="28" rx="14" fill="black"/>
<path d="M607.673 58.7825L607.665 60.1665H600.545V48.6785H607.665V50.0625H602.257V53.7025H606.609V55.0385H602.257V58.7825H607.673Z" fill="white"/>
<rect x="40.1998" y="99.1431" width="28" height="28" rx="14" fill="black"/>
<path d="M57.3758 117.951V119.143H51.1678V117.951H53.5998V110.423C53.5998 110.183 53.6078 109.935 53.6238 109.679L51.6718 111.335C51.5972 111.394 51.5225 111.431 51.4478 111.447C51.3732 111.463 51.3012 111.466 51.2318 111.455C51.1678 111.444 51.1092 111.423 51.0558 111.391C51.0078 111.354 50.9678 111.316 50.9358 111.279L50.4478 110.599L53.8878 107.631H55.1598V117.951H57.3758Z" fill="white"/>
<path d="M88.2219 97.0068C88.2219 92.5886 91.8036 89.0068 96.2219 89.0068H184.222C188.64 89.0068 192.222 92.5886 192.222 97.0068V129.007C192.222 133.425 188.64 137.007 184.222 137.007H96.2219C91.8036 137.007 88.2219 133.425 88.2219 129.007V97.0068Z" fill="#004ACE"/>
<path d="M121.744 111.883C122.788 112.405 123.436 113.359 123.436 114.781V115.105C123.436 117.445 121.888 118.507 119.458 118.507H115.228V106.159H119.098C121.726 106.159 123.094 107.113 123.094 109.183V109.399C123.094 110.569 122.536 111.415 121.744 111.883ZM117.118 107.725V111.397H119.026C120.43 111.397 121.204 110.803 121.204 109.615V109.435C121.204 108.139 120.502 107.725 118.99 107.725H117.118ZM121.528 115.051V114.799C121.528 113.359 120.718 112.891 119.278 112.891H117.118V116.959H119.278C120.718 116.959 121.528 116.455 121.528 115.051ZM129.226 118.651C127.894 118.651 126.958 118.309 126.346 117.625C125.788 117.013 125.518 116.131 125.518 114.979V109.201H127.354V115.015C127.354 115.699 127.498 116.257 127.804 116.617C128.11 116.977 128.578 117.175 129.226 117.175C129.874 117.175 130.324 116.977 130.63 116.617C130.936 116.257 131.08 115.699 131.08 115.015V109.201H132.916V114.979C132.916 116.131 132.646 117.013 132.088 117.625C131.476 118.309 130.54 118.651 129.226 118.651ZM139.718 110.713H137.576V116.113C137.576 116.779 137.81 116.995 138.404 116.995H139.664V118.507H137.81C136.496 118.507 135.74 117.841 135.74 116.419V110.713H134.3V109.201H135.74V106.519H137.576V109.201H139.718V110.713ZM146.13 110.713H143.988V116.113C143.988 116.779 144.222 116.995 144.816 116.995H146.076V118.507H144.222C142.908 118.507 142.152 117.841 142.152 116.419V110.713H140.712V109.201H142.152V106.519H143.988V109.201H146.13V110.713ZM151.717 118.651C150.601 118.651 149.629 118.381 148.945 117.787C148.135 117.085 147.739 115.969 147.739 114.421V113.305C147.739 111.721 148.153 110.605 148.945 109.921C149.629 109.345 150.601 109.057 151.717 109.057C152.833 109.057 153.805 109.345 154.489 109.921C155.299 110.623 155.695 111.757 155.695 113.305V114.421C155.695 116.005 155.281 117.103 154.489 117.787C153.805 118.381 152.833 118.651 151.717 118.651ZM151.717 117.157C152.365 117.157 152.869 116.995 153.193 116.671C153.679 116.185 153.859 115.375 153.859 114.331V113.395C153.859 112.333 153.679 111.523 153.193 111.055C152.869 110.731 152.365 110.551 151.717 110.551C151.087 110.551 150.601 110.713 150.241 111.055C149.737 111.541 149.575 112.351 149.575 113.395V114.331C149.575 115.375 149.755 116.185 150.241 116.671C150.565 116.995 151.069 117.157 151.717 117.157ZM164.705 110.029C165.191 110.623 165.461 111.433 165.461 112.477V118.507H163.625V112.693C163.625 112.045 163.499 111.541 163.211 111.163C162.905 110.821 162.473 110.623 161.843 110.623C161.285 110.623 160.781 110.803 160.421 111.127C160.007 111.505 159.773 112.099 159.773 112.927V118.507H157.937V109.201H159.647V110.299C160.223 109.561 161.231 109.057 162.383 109.057C163.373 109.057 164.183 109.417 164.705 110.029Z" fill="white"/>
<path d="M204.222 104.823C204.222 100.404 207.804 96.8228 212.222 96.8228H300.222C304.64 96.8228 308.222 100.404 308.222 104.823V120.823C308.222 125.241 304.64 128.823 300.222 128.823H212.222C207.804 128.823 204.222 125.241 204.222 120.823V104.823Z" fill="#004ACE"/>
<path d="M241.364 111.671C242.176 112.077 242.68 112.819 242.68 113.925V114.177C242.68 115.997 241.476 116.823 239.586 116.823H236.296V107.219H239.306C241.35 107.219 242.414 107.961 242.414 109.571V109.739C242.414 110.649 241.98 111.307 241.364 111.671ZM237.766 108.437V111.293H239.25C240.342 111.293 240.944 110.831 240.944 109.907V109.767C240.944 108.759 240.398 108.437 239.222 108.437H237.766ZM241.196 114.135V113.939C241.196 112.819 240.566 112.455 239.446 112.455H237.766V115.619H239.446C240.566 115.619 241.196 115.227 241.196 114.135ZM247.378 116.935C246.342 116.935 245.614 116.669 245.138 116.137C244.704 115.661 244.494 114.975 244.494 114.079V109.585H245.922V114.107C245.922 114.639 246.034 115.073 246.272 115.353C246.51 115.633 246.874 115.787 247.378 115.787C247.882 115.787 248.232 115.633 248.47 115.353C248.708 115.073 248.82 114.639 248.82 114.107V109.585H250.248V114.079C250.248 114.975 250.038 115.661 249.604 116.137C249.128 116.669 248.4 116.935 247.378 116.935ZM255.732 110.761H254.066V114.961C254.066 115.479 254.248 115.647 254.71 115.647H255.69V116.823H254.248C253.226 116.823 252.638 116.305 252.638 115.199V110.761H251.518V109.585H252.638V107.499H254.066V109.585H255.732V110.761ZM260.914 110.761H259.248V114.961C259.248 115.479 259.43 115.647 259.892 115.647H260.872V116.823H259.43C258.408 116.823 257.82 116.305 257.82 115.199V110.761H256.7V109.585H257.82V107.499H259.248V109.585H260.914V110.761ZM265.454 116.935C264.586 116.935 263.83 116.725 263.298 116.263C262.668 115.717 262.36 114.849 262.36 113.645V112.777C262.36 111.545 262.682 110.677 263.298 110.145C263.83 109.697 264.586 109.473 265.454 109.473C266.322 109.473 267.078 109.697 267.61 110.145C268.24 110.691 268.548 111.573 268.548 112.777V113.645C268.548 114.877 268.226 115.731 267.61 116.263C267.078 116.725 266.322 116.935 265.454 116.935ZM265.454 115.773C265.958 115.773 266.35 115.647 266.602 115.395C266.98 115.017 267.12 114.387 267.12 113.575V112.847C267.12 112.021 266.98 111.391 266.602 111.027C266.35 110.775 265.958 110.635 265.454 110.635C264.964 110.635 264.586 110.761 264.306 111.027C263.914 111.405 263.788 112.035 263.788 112.847V113.575C263.788 114.387 263.928 115.017 264.306 115.395C264.558 115.647 264.95 115.773 265.454 115.773ZM275.75 110.229C276.128 110.691 276.338 111.321 276.338 112.133V116.823H274.91V112.301C274.91 111.797 274.812 111.405 274.588 111.111C274.35 110.845 274.014 110.691 273.524 110.691C273.09 110.691 272.698 110.831 272.418 111.083C272.096 111.377 271.914 111.839 271.914 112.483V116.823H270.486V109.585H271.816V110.439C272.264 109.865 273.048 109.473 273.944 109.473C274.714 109.473 275.344 109.753 275.75 110.229Z" fill="white"/>
<path d="M320.222 106.639C320.222 102.221 323.803 98.6392 328.222 98.6392H416.222C420.64 98.6392 424.222 102.221 424.222 106.639V118.639C424.222 123.057 420.64 126.639 416.222 126.639H328.222C323.803 126.639 320.222 123.057 320.222 118.639V106.639Z" fill="#004ACE"/>
<path d="M359.486 112.223C360.182 112.571 360.614 113.207 360.614 114.155V114.371C360.614 115.931 359.582 116.639 357.962 116.639H355.142V108.407H357.722C359.474 108.407 360.386 109.043 360.386 110.423V110.567C360.386 111.347 360.014 111.911 359.486 112.223ZM356.402 109.451V111.899H357.674C358.61 111.899 359.126 111.503 359.126 110.711V110.591C359.126 109.727 358.658 109.451 357.65 109.451H356.402ZM359.342 114.335V114.167C359.342 113.207 358.802 112.895 357.842 112.895H356.402V115.607H357.842C358.802 115.607 359.342 115.271 359.342 114.335ZM364.641 116.735C363.753 116.735 363.129 116.507 362.721 116.051C362.349 115.643 362.169 115.055 362.169 114.287V110.435H363.393V114.311C363.393 114.767 363.489 115.139 363.693 115.379C363.897 115.619 364.209 115.751 364.641 115.751C365.073 115.751 365.373 115.619 365.577 115.379C365.781 115.139 365.877 114.767 365.877 114.311V110.435H367.101V114.287C367.101 115.055 366.921 115.643 366.549 116.051C366.141 116.507 365.517 116.735 364.641 116.735ZM371.802 111.443H370.374V115.043C370.374 115.487 370.53 115.631 370.926 115.631H371.766V116.639H370.53C369.654 116.639 369.15 116.195 369.15 115.247V111.443H368.19V110.435H369.15V108.647H370.374V110.435H371.802V111.443ZM376.244 111.443H374.816V115.043C374.816 115.487 374.972 115.631 375.368 115.631H376.208V116.639H374.972C374.096 116.639 373.592 116.195 373.592 115.247V111.443H372.632V110.435H373.592V108.647H374.816V110.435H376.244V111.443ZM380.135 116.735C379.391 116.735 378.743 116.555 378.287 116.159C377.747 115.691 377.483 114.947 377.483 113.915V113.171C377.483 112.115 377.759 111.371 378.287 110.915C378.743 110.531 379.391 110.339 380.135 110.339C380.879 110.339 381.527 110.531 381.983 110.915C382.523 111.383 382.787 112.139 382.787 113.171V113.915C382.787 114.971 382.511 115.703 381.983 116.159C381.527 116.555 380.879 116.735 380.135 116.735ZM380.135 115.739C380.567 115.739 380.903 115.631 381.119 115.415C381.443 115.091 381.563 114.551 381.563 113.855V113.231C381.563 112.523 381.443 111.983 381.119 111.671C380.903 111.455 380.567 111.335 380.135 111.335C379.715 111.335 379.391 111.443 379.151 111.671C378.815 111.995 378.707 112.535 378.707 113.231V113.855C378.707 114.551 378.827 115.091 379.151 115.415C379.367 115.631 379.703 115.739 380.135 115.739ZM388.96 110.987C389.284 111.383 389.464 111.923 389.464 112.619V116.639H388.24V112.763C388.24 112.331 388.156 111.995 387.964 111.743C387.76 111.515 387.472 111.383 387.052 111.383C386.68 111.383 386.344 111.503 386.104 111.719C385.828 111.971 385.672 112.367 385.672 112.919V116.639H384.448V110.435H385.588V111.167C385.972 110.675 386.644 110.339 387.412 110.339C388.072 110.339 388.612 110.579 388.96 110.987Z" fill="white"/>
<path d="M436.222 106.455C436.222 102.037 439.803 98.4551 444.222 98.4551H532.222C536.64 98.4551 540.222 102.037 540.222 106.455V118.455C540.222 122.873 536.64 126.455 532.222 126.455H444.222C439.803 126.455 436.222 122.873 436.222 118.455V106.455Z" fill="#DCDCDC"/>
<circle cx="478.222" cy="112.455" r="3" fill="#ABABAB"/>
<circle cx="488.222" cy="112.455" r="3" fill="#5F5F5F"/>
<circle cx="498.222" cy="112.455" r="3" fill="#5F5F5F"/>
<path d="M552.221 106.271C552.221 101.853 555.803 98.271 560.221 98.271H648.221C652.64 98.271 656.221 101.853 656.221 106.271V118.271C656.221 122.689 652.64 126.271 648.221 126.271H560.221C555.803 126.271 552.221 122.689 552.221 118.271V106.271Z" fill="#DCDCDC"/>
<path d="M591.486 111.855C592.182 112.203 592.614 112.839 592.614 113.787V114.003C592.614 115.563 591.582 116.271 589.962 116.271H587.142V108.039H589.722C591.474 108.039 592.386 108.675 592.386 110.055V110.199C592.386 110.979 592.014 111.543 591.486 111.855ZM588.402 109.083V111.531H589.674C590.61 111.531 591.126 111.135 591.126 110.343V110.223C591.126 109.359 590.658 109.083 589.65 109.083H588.402ZM591.342 113.967V113.799C591.342 112.839 590.802 112.527 589.842 112.527H588.402V115.239H589.842C590.802 115.239 591.342 114.903 591.342 113.967ZM596.641 116.367C595.753 116.367 595.129 116.139 594.721 115.683C594.349 115.275 594.169 114.687 594.169 113.919V110.067H595.393V113.943C595.393 114.399 595.489 114.771 595.693 115.011C595.897 115.251 596.209 115.383 596.641 115.383C597.073 115.383 597.373 115.251 597.577 115.011C597.781 114.771 597.877 114.399 597.877 113.943V110.067H599.101V113.919C599.101 114.687 598.921 115.275 598.549 115.683C598.141 116.139 597.517 116.367 596.641 116.367ZM603.802 111.075H602.374V114.675C602.374 115.119 602.53 115.263 602.926 115.263H603.766V116.271H602.53C601.654 116.271 601.15 115.827 601.15 114.879V111.075H600.19V110.067H601.15V108.279H602.374V110.067H603.802V111.075ZM608.243 111.075H606.815V114.675C606.815 115.119 606.971 115.263 607.367 115.263H608.207V116.271H606.971C606.095 116.271 605.591 115.827 605.591 114.879V111.075H604.631V110.067H605.591V108.279H606.815V110.067H608.243V111.075ZM612.135 116.367C611.391 116.367 610.743 116.187 610.287 115.791C609.747 115.323 609.483 114.579 609.483 113.547V112.803C609.483 111.747 609.759 111.003 610.287 110.547C610.743 110.163 611.391 109.971 612.135 109.971C612.879 109.971 613.527 110.163 613.983 110.547C614.523 111.015 614.787 111.771 614.787 112.803V113.547C614.787 114.603 614.511 115.335 613.983 115.791C613.527 116.187 612.879 116.367 612.135 116.367ZM612.135 115.371C612.567 115.371 612.903 115.263 613.119 115.047C613.443 114.723 613.563 114.183 613.563 113.487V112.863C613.563 112.155 613.443 111.615 613.119 111.303C612.903 111.087 612.567 110.967 612.135 110.967C611.715 110.967 611.391 111.075 611.151 111.303C610.815 111.627 610.707 112.167 610.707 112.863V113.487C610.707 114.183 610.827 114.723 611.151 115.047C611.367 115.263 611.703 115.371 612.135 115.371ZM620.96 110.619C621.284 111.015 621.464 111.555 621.464 112.251V116.271H620.24V112.395C620.24 111.963 620.156 111.627 619.964 111.375C619.76 111.147 619.472 111.015 619.052 111.015C618.68 111.015 618.344 111.135 618.104 111.351C617.828 111.603 617.672 111.999 617.672 112.551V116.271H616.448V110.067H617.588V110.799C617.972 110.307 618.644 109.971 619.412 109.971C620.072 109.971 620.612 110.211 620.96 110.619Z" fill="#ABABAB"/>
<rect x="40.3396" y="187.308" width="28" height="28" rx="14" fill="black"/>
<path d="M57.2276 205.828C57.3983 205.828 57.5316 205.878 57.6276 205.98C57.7236 206.076 57.7716 206.204 57.7716 206.364V207.308H50.0596V206.772C50.0596 206.665 50.0809 206.553 50.1236 206.436C50.1663 206.313 50.2383 206.204 50.3396 206.108L53.9716 202.468C54.2756 202.164 54.5503 201.87 54.7956 201.588C55.0409 201.305 55.2489 201.025 55.4196 200.748C55.5903 200.465 55.7209 200.177 55.8116 199.884C55.9076 199.59 55.9556 199.281 55.9556 198.956C55.9556 198.636 55.9049 198.356 55.8036 198.116C55.7023 197.87 55.5636 197.668 55.3876 197.508C55.2116 197.348 55.0036 197.228 54.7636 197.148C54.5236 197.068 54.2649 197.028 53.9876 197.028C53.7103 197.028 53.4543 197.068 53.2196 197.148C52.9903 197.228 52.7849 197.34 52.6036 197.484C52.4223 197.628 52.2703 197.798 52.1476 197.996C52.0249 198.193 51.9369 198.406 51.8836 198.636C51.8089 198.838 51.7129 198.974 51.5956 199.044C51.4836 199.113 51.3183 199.129 51.0996 199.092L50.2836 198.948C50.3583 198.414 50.5049 197.945 50.7236 197.54C50.9423 197.134 51.2169 196.796 51.5476 196.524C51.8783 196.246 52.2569 196.038 52.6836 195.9C53.1156 195.761 53.5796 195.692 54.0756 195.692C54.5769 195.692 55.0383 195.766 55.4596 195.916C55.8863 196.06 56.2543 196.27 56.5636 196.548C56.8729 196.825 57.1156 197.164 57.2916 197.564C57.4676 197.958 57.5556 198.406 57.5556 198.908C57.5556 199.334 57.4916 199.732 57.3636 200.1C57.2409 200.462 57.0703 200.809 56.8516 201.14C56.6383 201.47 56.3876 201.793 56.0996 202.108C55.8169 202.417 55.5156 202.732 55.1956 203.052L52.2836 206.028C52.5076 205.969 52.7316 205.921 52.9556 205.884C53.1849 205.846 53.4009 205.828 53.6036 205.828H57.2276Z" fill="white"/>
<path d="M96.3617 177.671H184.362C188.504 177.671 191.862 181.029 191.862 185.171V217.171C191.862 221.314 188.504 224.671 184.362 224.671H96.3617C92.2196 224.671 88.8617 221.314 88.8617 217.171V185.171L88.8715 184.786C89.0722 180.823 92.3489 177.671 96.3617 177.671Z" fill="#E8E8E8"/>
<path d="M96.3617 177.671H184.362C188.504 177.671 191.862 181.029 191.862 185.171V217.171C191.862 221.314 188.504 224.671 184.362 224.671H96.3617C92.2196 224.671 88.8617 221.314 88.8617 217.171V185.171L88.8715 184.786C89.0722 180.823 92.3489 177.671 96.3617 177.671Z" stroke="#E8E8E8"/>
<path d="M121.883 200.047C122.927 200.569 123.575 201.523 123.575 202.945V203.269C123.575 205.609 122.027 206.671 119.597 206.671H115.367V194.323H119.237C121.865 194.323 123.233 195.277 123.233 197.347V197.563C123.233 198.733 122.675 199.579 121.883 200.047ZM117.257 195.889V199.561H119.165C120.569 199.561 121.343 198.967 121.343 197.779V197.599C121.343 196.303 120.641 195.889 119.129 195.889H117.257ZM121.667 203.215V202.963C121.667 201.523 120.857 201.055 119.417 201.055H117.257V205.123H119.417C120.857 205.123 121.667 204.619 121.667 203.215ZM129.366 206.815C128.034 206.815 127.098 206.473 126.486 205.789C125.928 205.177 125.658 204.295 125.658 203.143V197.365H127.494V203.179C127.494 203.863 127.638 204.421 127.944 204.781C128.25 205.141 128.718 205.339 129.366 205.339C130.014 205.339 130.464 205.141 130.77 204.781C131.076 204.421 131.22 203.863 131.22 203.179V197.365H133.056V203.143C133.056 204.295 132.786 205.177 132.228 205.789C131.616 206.473 130.68 206.815 129.366 206.815ZM139.857 198.877H137.715V204.277C137.715 204.943 137.949 205.159 138.543 205.159H139.803V206.671H137.949C136.635 206.671 135.879 206.005 135.879 204.583V198.877H134.439V197.365H135.879V194.683H137.715V197.365H139.857V198.877ZM146.27 198.877H144.128V204.277C144.128 204.943 144.362 205.159 144.956 205.159H146.216V206.671H144.362C143.048 206.671 142.292 206.005 142.292 204.583V198.877H140.852V197.365H142.292V194.683H144.128V197.365H146.27V198.877ZM151.857 206.815C150.741 206.815 149.769 206.545 149.085 205.951C148.275 205.249 147.879 204.133 147.879 202.585V201.469C147.879 199.885 148.293 198.769 149.085 198.085C149.769 197.509 150.741 197.221 151.857 197.221C152.973 197.221 153.945 197.509 154.629 198.085C155.439 198.787 155.835 199.921 155.835 201.469V202.585C155.835 204.169 155.421 205.267 154.629 205.951C153.945 206.545 152.973 206.815 151.857 206.815ZM151.857 205.321C152.505 205.321 153.009 205.159 153.333 204.835C153.819 204.349 153.999 203.539 153.999 202.495V201.559C153.999 200.497 153.819 199.687 153.333 199.219C153.009 198.895 152.505 198.715 151.857 198.715C151.227 198.715 150.741 198.877 150.381 199.219C149.877 199.705 149.715 200.515 149.715 201.559V202.495C149.715 203.539 149.895 204.349 150.381 204.835C150.705 205.159 151.209 205.321 151.857 205.321ZM164.845 198.193C165.331 198.787 165.601 199.597 165.601 200.641V206.671H163.765V200.857C163.765 200.209 163.639 199.705 163.351 199.327C163.045 198.985 162.613 198.787 161.983 198.787C161.425 198.787 160.921 198.967 160.561 199.291C160.147 199.669 159.913 200.263 159.913 201.091V206.671H158.077V197.365H159.787V198.463C160.363 197.725 161.371 197.221 162.523 197.221C163.513 197.221 164.323 197.581 164.845 198.193Z" fill="#181818"/>
<path d="M212.362 185.487H300.362C304.504 185.487 307.862 188.845 307.862 192.987V208.987C307.862 213.129 304.504 216.487 300.362 216.487H212.362C208.219 216.487 204.862 213.129 204.862 208.987V192.987C204.862 188.845 208.219 185.487 212.362 185.487Z" fill="#E8E8E8"/>
<path d="M212.362 185.487H300.362C304.504 185.487 307.862 188.845 307.862 192.987V208.987C307.862 213.129 304.504 216.487 300.362 216.487H212.362C208.219 216.487 204.862 213.129 204.862 208.987V192.987C204.862 188.845 208.219 185.487 212.362 185.487Z" stroke="#E8E8E8"/>
<path d="M241.503 199.835C242.315 200.241 242.819 200.983 242.819 202.089V202.341C242.819 204.161 241.615 204.987 239.725 204.987H236.435V195.383H239.445C241.489 195.383 242.553 196.125 242.553 197.735V197.903C242.553 198.813 242.119 199.471 241.503 199.835ZM237.905 196.601V199.457H239.389C240.481 199.457 241.083 198.995 241.083 198.071V197.931C241.083 196.923 240.537 196.601 239.361 196.601H237.905ZM241.335 202.299V202.103C241.335 200.983 240.705 200.619 239.585 200.619H237.905V203.783H239.585C240.705 203.783 241.335 203.391 241.335 202.299ZM247.518 205.099C246.482 205.099 245.754 204.833 245.278 204.301C244.844 203.825 244.634 203.139 244.634 202.243V197.749H246.062V202.271C246.062 202.803 246.174 203.237 246.412 203.517C246.65 203.797 247.014 203.951 247.518 203.951C248.022 203.951 248.372 203.797 248.61 203.517C248.848 203.237 248.96 202.803 248.96 202.271V197.749H250.388V202.243C250.388 203.139 250.178 203.825 249.744 204.301C249.268 204.833 248.54 205.099 247.518 205.099ZM255.872 198.925H254.206V203.125C254.206 203.643 254.388 203.811 254.85 203.811H255.83V204.987H254.388C253.366 204.987 252.778 204.469 252.778 203.363V198.925H251.658V197.749H252.778V195.663H254.206V197.749H255.872V198.925ZM261.054 198.925H259.388V203.125C259.388 203.643 259.57 203.811 260.032 203.811H261.012V204.987H259.57C258.548 204.987 257.96 204.469 257.96 203.363V198.925H256.84V197.749H257.96V195.663H259.388V197.749H261.054V198.925ZM265.594 205.099C264.726 205.099 263.97 204.889 263.438 204.427C262.808 203.881 262.5 203.013 262.5 201.809V200.941C262.5 199.709 262.822 198.841 263.438 198.309C263.97 197.861 264.726 197.637 265.594 197.637C266.462 197.637 267.218 197.861 267.75 198.309C268.38 198.855 268.688 199.737 268.688 200.941V201.809C268.688 203.041 268.366 203.895 267.75 204.427C267.218 204.889 266.462 205.099 265.594 205.099ZM265.594 203.937C266.098 203.937 266.49 203.811 266.742 203.559C267.12 203.181 267.26 202.551 267.26 201.739V201.011C267.26 200.185 267.12 199.555 266.742 199.191C266.49 198.939 266.098 198.799 265.594 198.799C265.104 198.799 264.726 198.925 264.446 199.191C264.054 199.569 263.928 200.199 263.928 201.011V201.739C263.928 202.551 264.068 203.181 264.446 203.559C264.698 203.811 265.09 203.937 265.594 203.937ZM275.89 198.393C276.268 198.855 276.478 199.485 276.478 200.297V204.987H275.05V200.465C275.05 199.961 274.952 199.569 274.728 199.275C274.49 199.009 274.154 198.855 273.664 198.855C273.23 198.855 272.838 198.995 272.558 199.247C272.236 199.541 272.054 200.003 272.054 200.647V204.987H270.626V197.749H271.956V198.603C272.404 198.029 273.188 197.637 274.084 197.637C274.854 197.637 275.484 197.917 275.89 198.393Z" fill="#181818"/>
<path d="M328.361 187.304H416.361C420.504 187.304 423.861 190.662 423.861 194.804V206.804C423.861 210.946 420.504 214.304 416.361 214.304H328.361C324.219 214.304 320.861 210.946 320.861 206.804V194.804L320.871 194.418C321.072 190.455 324.349 187.304 328.361 187.304Z" fill="#E8E8E8"/>
<path d="M328.361 187.304H416.361C420.504 187.304 423.861 190.662 423.861 194.804V206.804C423.861 210.946 420.504 214.304 416.361 214.304H328.361C324.219 214.304 320.861 210.946 320.861 206.804V194.804L320.871 194.418C321.072 190.455 324.349 187.304 328.361 187.304Z" stroke="#E8E8E8"/>
<path d="M359.626 200.388C360.322 200.736 360.754 201.372 360.754 202.32V202.536C360.754 204.096 359.722 204.804 358.102 204.804H355.282V196.572H357.862C359.614 196.572 360.526 197.208 360.526 198.588V198.732C360.526 199.512 360.154 200.076 359.626 200.388ZM356.542 197.616V200.064H357.814C358.75 200.064 359.266 199.668 359.266 198.876V198.756C359.266 197.892 358.798 197.616 357.79 197.616H356.542ZM359.482 202.5V202.332C359.482 201.372 358.942 201.06 357.982 201.06H356.542V203.772H357.982C358.942 203.772 359.482 203.436 359.482 202.5ZM364.781 204.9C363.893 204.9 363.269 204.672 362.861 204.216C362.489 203.808 362.309 203.22 362.309 202.452V198.6H363.533V202.476C363.533 202.932 363.629 203.304 363.833 203.544C364.037 203.784 364.349 203.916 364.781 203.916C365.213 203.916 365.513 203.784 365.717 203.544C365.921 203.304 366.017 202.932 366.017 202.476V198.6H367.241V202.452C367.241 203.22 367.061 203.808 366.689 204.216C366.281 204.672 365.657 204.9 364.781 204.9ZM371.942 199.608H370.514V203.208C370.514 203.652 370.67 203.796 371.066 203.796H371.906V204.804H370.67C369.794 204.804 369.29 204.36 369.29 203.412V199.608H368.33V198.6H369.29V196.812H370.514V198.6H371.942V199.608ZM376.383 199.608H374.955V203.208C374.955 203.652 375.111 203.796 375.507 203.796H376.347V204.804H375.111C374.235 204.804 373.731 204.36 373.731 203.412V199.608H372.771V198.6H373.731V196.812H374.955V198.6H376.383V199.608ZM380.275 204.9C379.531 204.9 378.883 204.72 378.427 204.324C377.887 203.856 377.623 203.112 377.623 202.08V201.336C377.623 200.28 377.899 199.536 378.427 199.08C378.883 198.696 379.531 198.504 380.275 198.504C381.019 198.504 381.667 198.696 382.123 199.08C382.663 199.548 382.927 200.304 382.927 201.336V202.08C382.927 203.136 382.651 203.868 382.123 204.324C381.667 204.72 381.019 204.9 380.275 204.9ZM380.275 203.904C380.707 203.904 381.043 203.796 381.259 203.58C381.583 203.256 381.703 202.716 381.703 202.02V201.396C381.703 200.688 381.583 200.148 381.259 199.836C381.043 199.62 380.707 199.5 380.275 199.5C379.855 199.5 379.531 199.608 379.291 199.836C378.955 200.16 378.847 200.7 378.847 201.396V202.02C378.847 202.716 378.967 203.256 379.291 203.58C379.507 203.796 379.843 203.904 380.275 203.904ZM389.1 199.152C389.424 199.548 389.604 200.088 389.604 200.784V204.804H388.38V200.928C388.38 200.496 388.296 200.16 388.104 199.908C387.9 199.68 387.612 199.548 387.192 199.548C386.82 199.548 386.484 199.668 386.244 199.884C385.968 200.136 385.812 200.532 385.812 201.084V204.804H384.588V198.6H385.728V199.332C386.112 198.84 386.784 198.504 387.552 198.504C388.212 198.504 388.752 198.744 389.1 199.152Z" fill="#181818"/>
<rect x="40.4795" y="275.473" width="28" height="28" rx="14" fill="black"/>
<path d="M50.4715 287.113C50.5515 286.579 50.7008 286.11 50.9195 285.705C51.1382 285.299 51.4128 284.961 51.7435 284.689C52.0742 284.411 52.4528 284.203 52.8795 284.065C53.3115 283.926 53.7755 283.857 54.2715 283.857C54.7675 283.857 55.2235 283.929 55.6395 284.073C56.0555 284.211 56.4102 284.411 56.7035 284.673C57.0022 284.929 57.2342 285.238 57.3995 285.601C57.5648 285.963 57.6475 286.363 57.6475 286.801C57.6475 287.169 57.6022 287.494 57.5115 287.777C57.4208 288.059 57.2902 288.307 57.1195 288.521C56.9542 288.734 56.7515 288.915 56.5115 289.065C56.2715 289.209 56.0022 289.329 55.7035 289.425C56.4342 289.627 56.9835 289.958 57.3515 290.417C57.7195 290.87 57.9035 291.446 57.9035 292.145C57.9035 292.683 57.8022 293.169 57.5995 293.601C57.3968 294.027 57.1195 294.39 56.7675 294.689C56.4155 294.982 56.0048 295.209 55.5355 295.369C55.0715 295.523 54.5755 295.601 54.0475 295.601C53.4448 295.601 52.9275 295.529 52.4955 295.385C52.0635 295.235 51.6955 295.03 51.3915 294.769C51.0875 294.502 50.8342 294.185 50.6315 293.817C50.4342 293.443 50.2662 293.035 50.1275 292.593L50.8075 292.305C50.9835 292.23 51.1542 292.209 51.3195 292.241C51.4848 292.273 51.6048 292.366 51.6795 292.521C51.7595 292.681 51.8502 292.862 51.9515 293.065C52.0582 293.262 52.1995 293.451 52.3755 293.633C52.5515 293.809 52.7702 293.958 53.0315 294.081C53.2982 294.203 53.6315 294.265 54.0315 294.265C54.4155 294.265 54.7515 294.203 55.0395 294.081C55.3275 293.953 55.5675 293.79 55.7595 293.593C55.9515 293.39 56.0955 293.166 56.1915 292.921C56.2875 292.675 56.3355 292.433 56.3355 292.193C56.3355 291.894 56.2982 291.619 56.2235 291.369C56.1488 291.118 56.0048 290.905 55.7915 290.729C55.5835 290.547 55.2928 290.406 54.9195 290.305C54.5462 290.203 54.0608 290.153 53.4635 290.153V289.017C53.9542 289.011 54.3675 288.961 54.7035 288.865C55.0448 288.769 55.3195 288.635 55.5275 288.465C55.7355 288.294 55.8848 288.091 55.9755 287.857C56.0715 287.622 56.1195 287.361 56.1195 287.073C56.1195 286.758 56.0715 286.483 55.9755 286.249C55.8795 286.014 55.7435 285.819 55.5675 285.665C55.3968 285.505 55.1915 285.387 54.9515 285.313C54.7168 285.233 54.4608 285.193 54.1835 285.193C53.9062 285.193 53.6502 285.233 53.4155 285.313C53.1808 285.393 52.9728 285.505 52.7915 285.649C52.6102 285.793 52.4582 285.963 52.3355 286.161C52.2128 286.358 52.1248 286.571 52.0715 286.801C51.9968 287.003 51.9008 287.139 51.7835 287.209C51.6715 287.278 51.5088 287.294 51.2955 287.257L50.4715 287.113Z" fill="white"/>
<path d="M96.5016 265.836H184.502C188.644 265.836 192.002 269.194 192.002 273.336V305.336C192.002 309.479 188.644 312.836 184.502 312.836H96.5016C92.3595 312.836 89.0016 309.479 89.0016 305.336V273.336L89.0114 272.951C89.2121 268.988 92.4888 265.836 96.5016 265.836Z" fill="white"/>
<path d="M96.5016 265.836H184.502C188.644 265.836 192.002 269.194 192.002 273.336V305.336C192.002 309.479 188.644 312.836 184.502 312.836H96.5016C92.3595 312.836 89.0016 309.479 89.0016 305.336V273.336L89.0114 272.951C89.2121 268.988 92.4888 265.836 96.5016 265.836Z" stroke="#DCDCDC"/>
<path d="M122.023 288.212C123.067 288.734 123.715 289.688 123.715 291.11V291.434C123.715 293.774 122.167 294.836 119.737 294.836H115.507V282.488H119.377C122.005 282.488 123.373 283.442 123.373 285.512V285.728C123.373 286.898 122.815 287.744 122.023 288.212ZM117.397 284.054V287.726H119.305C120.709 287.726 121.483 287.132 121.483 285.944V285.764C121.483 284.468 120.781 284.054 119.269 284.054H117.397ZM121.807 291.38V291.128C121.807 289.688 120.997 289.22 119.557 289.22H117.397V293.288H119.557C120.997 293.288 121.807 292.784 121.807 291.38ZM129.506 294.98C128.174 294.98 127.238 294.638 126.626 293.954C126.068 293.342 125.798 292.46 125.798 291.308V285.53H127.634V291.344C127.634 292.028 127.778 292.586 128.084 292.946C128.39 293.306 128.858 293.504 129.506 293.504C130.154 293.504 130.604 293.306 130.91 292.946C131.216 292.586 131.36 292.028 131.36 291.344V285.53H133.196V291.308C133.196 292.46 132.926 293.342 132.368 293.954C131.756 294.638 130.82 294.98 129.506 294.98ZM139.997 287.042H137.855V292.442C137.855 293.108 138.089 293.324 138.683 293.324H139.943V294.836H138.089C136.775 294.836 136.019 294.17 136.019 292.748V287.042H134.579V285.53H136.019V282.848H137.855V285.53H139.997V287.042ZM146.409 287.042H144.267V292.442C144.267 293.108 144.501 293.324 145.095 293.324H146.355V294.836H144.501C143.187 294.836 142.431 294.17 142.431 292.748V287.042H140.991V285.53H142.431V282.848H144.267V285.53H146.409V287.042ZM151.997 294.98C150.881 294.98 149.909 294.71 149.225 294.116C148.415 293.414 148.019 292.298 148.019 290.75V289.634C148.019 288.05 148.433 286.934 149.225 286.25C149.909 285.674 150.881 285.386 151.997 285.386C153.113 285.386 154.085 285.674 154.769 286.25C155.579 286.952 155.975 288.086 155.975 289.634V290.75C155.975 292.334 155.561 293.432 154.769 294.116C154.085 294.71 153.113 294.98 151.997 294.98ZM151.997 293.486C152.645 293.486 153.149 293.324 153.473 293C153.959 292.514 154.139 291.704 154.139 290.66V289.724C154.139 288.662 153.959 287.852 153.473 287.384C153.149 287.06 152.645 286.88 151.997 286.88C151.367 286.88 150.881 287.042 150.521 287.384C150.017 287.87 149.855 288.68 149.855 289.724V290.66C149.855 291.704 150.035 292.514 150.521 293C150.845 293.324 151.349 293.486 151.997 293.486ZM164.985 286.358C165.471 286.952 165.741 287.762 165.741 288.806V294.836H163.905V289.022C163.905 288.374 163.779 287.87 163.491 287.492C163.185 287.15 162.753 286.952 162.123 286.952C161.565 286.952 161.061 287.132 160.701 287.456C160.287 287.834 160.053 288.428 160.053 289.256V294.836H158.217V285.53H159.927V286.628C160.503 285.89 161.511 285.386 162.663 285.386C163.653 285.386 164.463 285.746 164.985 286.358Z" fill="#181818"/>
<path d="M212.501 273.652H300.501C304.644 273.652 308.001 277.01 308.001 281.152V297.152C308.001 301.294 304.644 304.652 300.501 304.652H212.501C208.359 304.652 205.001 301.294 205.001 297.152V281.152C205.001 277.01 208.359 273.652 212.501 273.652Z" fill="white"/>
<path d="M212.501 273.652H300.501C304.644 273.652 308.001 277.01 308.001 281.152V297.152C308.001 301.294 304.644 304.652 300.501 304.652H212.501C208.359 304.652 205.001 301.294 205.001 297.152V281.152C205.001 277.01 208.359 273.652 212.501 273.652Z" stroke="#DCDCDC"/>
<path d="M241.643 288C242.455 288.406 242.959 289.148 242.959 290.254V290.506C242.959 292.326 241.755 293.152 239.865 293.152H236.575V283.548H239.585C241.629 283.548 242.693 284.29 242.693 285.9V286.068C242.693 286.978 242.259 287.636 241.643 288ZM238.045 284.766V287.622H239.529C240.621 287.622 241.223 287.16 241.223 286.236V286.096C241.223 285.088 240.677 284.766 239.501 284.766H238.045ZM241.475 290.464V290.268C241.475 289.148 240.845 288.784 239.725 288.784H238.045V291.948H239.725C240.845 291.948 241.475 291.556 241.475 290.464ZM247.658 293.264C246.622 293.264 245.894 292.998 245.418 292.466C244.984 291.99 244.774 291.304 244.774 290.408V285.914H246.202V290.436C246.202 290.968 246.314 291.402 246.552 291.682C246.79 291.962 247.154 292.116 247.658 292.116C248.162 292.116 248.512 291.962 248.75 291.682C248.988 291.402 249.1 290.968 249.1 290.436V285.914H250.528V290.408C250.528 291.304 250.318 291.99 249.884 292.466C249.408 292.998 248.68 293.264 247.658 293.264ZM256.012 287.09H254.346V291.29C254.346 291.808 254.528 291.976 254.99 291.976H255.97V293.152H254.528C253.506 293.152 252.918 292.634 252.918 291.528V287.09H251.798V285.914H252.918V283.828H254.346V285.914H256.012V287.09ZM261.194 287.09H259.528V291.29C259.528 291.808 259.71 291.976 260.172 291.976H261.152V293.152H259.71C258.688 293.152 258.1 292.634 258.1 291.528V287.09H256.98V285.914H258.1V283.828H259.528V285.914H261.194V287.09ZM265.734 293.264C264.866 293.264 264.11 293.054 263.578 292.592C262.948 292.046 262.64 291.178 262.64 289.974V289.106C262.64 287.874 262.962 287.006 263.578 286.474C264.11 286.026 264.866 285.802 265.734 285.802C266.602 285.802 267.358 286.026 267.89 286.474C268.52 287.02 268.828 287.902 268.828 289.106V289.974C268.828 291.206 268.506 292.06 267.89 292.592C267.358 293.054 266.602 293.264 265.734 293.264ZM265.734 292.102C266.238 292.102 266.63 291.976 266.882 291.724C267.26 291.346 267.4 290.716 267.4 289.904V289.176C267.4 288.35 267.26 287.72 266.882 287.356C266.63 287.104 266.238 286.964 265.734 286.964C265.244 286.964 264.866 287.09 264.586 287.356C264.194 287.734 264.068 288.364 264.068 289.176V289.904C264.068 290.716 264.208 291.346 264.586 291.724C264.838 291.976 265.23 292.102 265.734 292.102ZM276.03 286.558C276.408 287.02 276.618 287.65 276.618 288.462V293.152H275.19V288.63C275.19 288.126 275.092 287.734 274.868 287.44C274.63 287.174 274.294 287.02 273.804 287.02C273.37 287.02 272.978 287.16 272.698 287.412C272.376 287.706 272.194 288.168 272.194 288.812V293.152H270.766V285.914H272.096V286.768C272.544 286.194 273.328 285.802 274.224 285.802C274.994 285.802 275.624 286.082 276.03 286.558Z" fill="#181818"/>
<path d="M328.501 275.469H416.501C420.643 275.469 424.001 278.827 424.001 282.969V294.969C424.001 299.111 420.643 302.469 416.501 302.469H328.501C324.359 302.469 321.001 299.111 321.001 294.969V282.969L321.011 282.583C321.212 278.62 324.489 275.469 328.501 275.469Z" fill="white"/>
<path d="M328.501 275.469H416.501C420.643 275.469 424.001 278.827 424.001 282.969V294.969C424.001 299.111 420.643 302.469 416.501 302.469H328.501C324.359 302.469 321.001 299.111 321.001 294.969V282.969L321.011 282.583C321.212 278.62 324.489 275.469 328.501 275.469Z" stroke="#DCDCDC"/>
<path d="M359.766 288.553C360.462 288.901 360.894 289.537 360.894 290.485V290.701C360.894 292.261 359.862 292.969 358.242 292.969H355.422V284.737H358.002C359.754 284.737 360.666 285.373 360.666 286.753V286.897C360.666 287.677 360.294 288.241 359.766 288.553ZM356.682 285.781V288.229H357.954C358.89 288.229 359.406 287.833 359.406 287.041V286.921C359.406 286.057 358.938 285.781 357.93 285.781H356.682ZM359.622 290.665V290.497C359.622 289.537 359.082 289.225 358.122 289.225H356.682V291.937H358.122C359.082 291.937 359.622 291.601 359.622 290.665ZM364.921 293.065C364.033 293.065 363.409 292.837 363.001 292.381C362.629 291.973 362.449 291.385 362.449 290.617V286.765H363.673V290.641C363.673 291.097 363.769 291.469 363.973 291.709C364.177 291.949 364.489 292.081 364.921 292.081C365.353 292.081 365.653 291.949 365.857 291.709C366.061 291.469 366.157 291.097 366.157 290.641V286.765H367.381V290.617C367.381 291.385 367.201 291.973 366.829 292.381C366.421 292.837 365.797 293.065 364.921 293.065ZM372.082 287.773H370.654V291.373C370.654 291.817 370.81 291.961 371.206 291.961H372.046V292.969H370.81C369.934 292.969 369.43 292.525 369.43 291.577V287.773H368.47V286.765H369.43V284.977H370.654V286.765H372.082V287.773ZM376.523 287.773H375.095V291.373C375.095 291.817 375.251 291.961 375.647 291.961H376.487V292.969H375.251C374.375 292.969 373.871 292.525 373.871 291.577V287.773H372.911V286.765H373.871V284.977H375.095V286.765H376.523V287.773ZM380.415 293.065C379.671 293.065 379.023 292.885 378.567 292.489C378.027 292.021 377.763 291.277 377.763 290.245V289.501C377.763 288.445 378.039 287.701 378.567 287.245C379.023 286.861 379.671 286.669 380.415 286.669C381.159 286.669 381.807 286.861 382.263 287.245C382.803 287.713 383.067 288.469 383.067 289.501V290.245C383.067 291.301 382.791 292.033 382.263 292.489C381.807 292.885 381.159 293.065 380.415 293.065ZM380.415 292.069C380.847 292.069 381.183 291.961 381.399 291.745C381.723 291.421 381.843 290.881 381.843 290.185V289.561C381.843 288.853 381.723 288.313 381.399 288.001C381.183 287.785 380.847 287.665 380.415 287.665C379.995 287.665 379.671 287.773 379.431 288.001C379.095 288.325 378.987 288.865 378.987 289.561V290.185C378.987 290.881 379.107 291.421 379.431 291.745C379.647 291.961 379.983 292.069 380.415 292.069ZM389.24 287.317C389.564 287.713 389.744 288.253 389.744 288.949V292.969H388.52V289.093C388.52 288.661 388.436 288.325 388.244 288.073C388.04 287.845 387.752 287.713 387.332 287.713C386.96 287.713 386.624 287.833 386.384 288.049C386.108 288.301 385.952 288.697 385.952 289.249V292.969H384.728V286.765H385.868V287.497C386.252 287.005 386.924 286.669 387.692 286.669C388.352 286.669 388.892 286.909 389.24 287.317Z" fill="#181818"/>
</svg>
